<?xml version="1.0" encoding="utf-8" standalone="no"?>
<!DOCTYPE svg PUBLIC "-//W3C//DTD SVG 1.1//EN"
  "http://www.w3.org/Graphics/SVG/1.1/DTD/svg11.dtd">
<!-- Created with matplotlib (http://matplotlib.org/) -->
<svg height="345pt" version="1.1" viewBox="0 0 460 345" width="460pt" xmlns="http://www.w3.org/2000/svg" xmlns:xlink="http://www.w3.org/1999/xlink">
 <defs>
  <style type="text/css">
*{stroke-linecap:butt;stroke-linejoin:round;}
  </style>
 </defs>
 <g id="figure_1">
  <g id="patch_1">
   <path d="M 0 345.6 
L 460.8 345.6 
L 460.8 0 
L 0 0 
z
" style="fill:#ffffff;"/>
  </g>
  <g id="axes_1">
   <g id="patch_2">
    <path d="M 57.6 307.584 
L 414.72 307.584 
L 414.72 41.472 
L 57.6 41.472 
z
" style="fill:#ffffff;"/>
   </g>
   <g id="matplotlib.axis_1">
    <g id="xtick_1">
     <g id="line2d_1">
      <defs>
       <path d="M 0 0 
L 0 3.5 
" id="m6a628f2c0b" style="stroke:#000000;stroke-width:0.8;"/>
      </defs>
      <g>
       <use style="stroke:#000000;stroke-width:0.8;" x="73.832727" xlink:href="#m6a628f2c0b" y="307.584"/>
      </g>
     </g>
     <g id="text_1">
      <!-- 0.0 -->
      <defs>
       <path d="M 31.78125 66.40625 
Q 24.171875 66.40625 20.328125 58.90625 
Q 16.5 51.421875 16.5 36.375 
Q 16.5 21.390625 20.328125 13.890625 
Q 24.171875 6.390625 31.78125 6.390625 
Q 39.453125 6.390625 43.28125 13.890625 
Q 47.125 21.390625 47.125 36.375 
Q 47.125 51.421875 43.28125 58.90625 
Q 39.453125 66.40625 31.78125 66.40625 
z
M 31.78125 74.21875 
Q 44.046875 74.21875 50.515625 64.515625 
Q 56.984375 54.828125 56.984375 36.375 
Q 56.984375 17.96875 50.515625 8.265625 
Q 44.046875 -1.421875 31.78125 -1.421875 
Q 19.53125 -1.421875 13.0625 8.265625 
Q 6.59375 17.96875 6.59375 36.375 
Q 6.59375 54.828125 13.0625 64.515625 
Q 19.53125 74.21875 31.78125 74.21875 
z
" id="DejaVuSans-30"/>
       <path d="M 10.6875 12.40625 
L 21 12.40625 
L 21 0 
L 10.6875 0 
z
" id="DejaVuSans-2e"/>
      </defs>
      <g transform="translate(65.881165 322.182437)scale(0.1 -0.1)">
       <use xlink:href="#DejaVuSans-30"/>
       <use x="63.623047" xlink:href="#DejaVuSans-2e"/>
       <use x="95.410156" xlink:href="#DejaVuSans-30"/>
      </g>
     </g>
    </g>
    <g id="xtick_2">
     <g id="line2d_2">
      <g>
       <use style="stroke:#000000;stroke-width:0.8;" x="138.763636" xlink:href="#m6a628f2c0b" y="307.584"/>
      </g>
     </g>
     <g id="text_2">
      <!-- 0.2 -->
      <defs>
       <path d="M 19.1875 8.296875 
L 53.609375 8.296875 
L 53.609375 0 
L 7.328125 0 
L 7.328125 8.296875 
Q 12.9375 14.109375 22.625 23.890625 
Q 32.328125 33.6875 34.8125 36.53125 
Q 39.546875 41.84375 41.421875 45.53125 
Q 43.3125 49.21875 43.3125 52.78125 
Q 43.3125 58.59375 39.234375 62.25 
Q 35.15625 65.921875 28.609375 65.921875 
Q 23.96875 65.921875 18.8125 64.3125 
Q 13.671875 62.703125 7.8125 59.421875 
L 7.8125 69.390625 
Q 13.765625 71.78125 18.9375 73 
Q 24.125 74.21875 28.421875 74.21875 
Q 39.75 74.21875 46.484375 68.546875 
Q 53.21875 62.890625 53.21875 53.421875 
Q 53.21875 48.921875 51.53125 44.890625 
Q 49.859375 40.875 45.40625 35.40625 
Q 44.1875 33.984375 37.640625 27.21875 
Q 31.109375 20.453125 19.1875 8.296875 
z
" id="DejaVuSans-32"/>
      </defs>
      <g transform="translate(130.812074 322.182437)scale(0.1 -0.1)">
       <use xlink:href="#DejaVuSans-30"/>
       <use x="63.623047" xlink:href="#DejaVuSans-2e"/>
       <use x="95.410156" xlink:href="#DejaVuSans-32"/>
      </g>
     </g>
    </g>
    <g id="xtick_3">
     <g id="line2d_3">
      <g>
       <use style="stroke:#000000;stroke-width:0.8;" x="203.694545" xlink:href="#m6a628f2c0b" y="307.584"/>
      </g>
     </g>
     <g id="text_3">
      <!-- 0.4 -->
      <defs>
       <path d="M 37.796875 64.3125 
L 12.890625 25.390625 
L 37.796875 25.390625 
z
M 35.203125 72.90625 
L 47.609375 72.90625 
L 47.609375 25.390625 
L 58.015625 25.390625 
L 58.015625 17.1875 
L 47.609375 17.1875 
L 47.609375 0 
L 37.796875 0 
L 37.796875 17.1875 
L 4.890625 17.1875 
L 4.890625 26.703125 
z
" id="DejaVuSans-34"/>
      </defs>
      <g transform="translate(195.742983 322.182437)scale(0.1 -0.1)">
       <use xlink:href="#DejaVuSans-30"/>
       <use x="63.623047" xlink:href="#DejaVuSans-2e"/>
       <use x="95.410156" xlink:href="#DejaVuSans-34"/>
      </g>
     </g>
    </g>
    <g id="xtick_4">
     <g id="line2d_4">
      <g>
       <use style="stroke:#000000;stroke-width:0.8;" x="268.625455" xlink:href="#m6a628f2c0b" y="307.584"/>
      </g>
     </g>
     <g id="text_4">
      <!-- 0.6 -->
      <defs>
       <path d="M 33.015625 40.375 
Q 26.375 40.375 22.484375 35.828125 
Q 18.609375 31.296875 18.609375 23.390625 
Q 18.609375 15.53125 22.484375 10.953125 
Q 26.375 6.390625 33.015625 6.390625 
Q 39.65625 6.390625 43.53125 10.953125 
Q 47.40625 15.53125 47.40625 23.390625 
Q 47.40625 31.296875 43.53125 35.828125 
Q 39.65625 40.375 33.015625 40.375 
z
M 52.59375 71.296875 
L 52.59375 62.3125 
Q 48.875 64.0625 45.09375 64.984375 
Q 41.3125 65.921875 37.59375 65.921875 
Q 27.828125 65.921875 22.671875 59.328125 
Q 17.53125 52.734375 16.796875 39.40625 
Q 19.671875 43.65625 24.015625 45.921875 
Q 28.375 48.1875 33.59375 48.1875 
Q 44.578125 48.1875 50.953125 41.515625 
Q 57.328125 34.859375 57.328125 23.390625 
Q 57.328125 12.15625 50.6875 5.359375 
Q 44.046875 -1.421875 33.015625 -1.421875 
Q 20.359375 -1.421875 13.671875 8.265625 
Q 6.984375 17.96875 6.984375 36.375 
Q 6.984375 53.65625 15.1875 63.9375 
Q 23.390625 74.21875 37.203125 74.21875 
Q 40.921875 74.21875 44.703125 73.484375 
Q 48.484375 72.75 52.59375 71.296875 
z
" id="DejaVuSans-36"/>
      </defs>
      <g transform="translate(260.673892 322.182437)scale(0.1 -0.1)">
       <use xlink:href="#DejaVuSans-30"/>
       <use x="63.623047" xlink:href="#DejaVuSans-2e"/>
       <use x="95.410156" xlink:href="#DejaVuSans-36"/>
      </g>
     </g>
    </g>
    <g id="xtick_5">
     <g id="line2d_5">
      <g>
       <use style="stroke:#000000;stroke-width:0.8;" x="333.556364" xlink:href="#m6a628f2c0b" y="307.584"/>
      </g>
     </g>
     <g id="text_5">
      <!-- 0.8 -->
      <defs>
       <path d="M 31.78125 34.625 
Q 24.75 34.625 20.71875 30.859375 
Q 16.703125 27.09375 16.703125 20.515625 
Q 16.703125 13.921875 20.71875 10.15625 
Q 24.75 6.390625 31.78125 6.390625 
Q 38.8125 6.390625 42.859375 10.171875 
Q 46.921875 13.96875 46.921875 20.515625 
Q 46.921875 27.09375 42.890625 30.859375 
Q 38.875 34.625 31.78125 34.625 
z
M 21.921875 38.8125 
Q 15.578125 40.375 12.03125 44.71875 
Q 8.5 49.078125 8.5 55.328125 
Q 8.5 64.0625 14.71875 69.140625 
Q 20.953125 74.21875 31.78125 74.21875 
Q 42.671875 74.21875 48.875 69.140625 
Q 55.078125 64.0625 55.078125 55.328125 
Q 55.078125 49.078125 51.53125 44.71875 
Q 48 40.375 41.703125 38.8125 
Q 48.828125 37.15625 52.796875 32.3125 
Q 56.78125 27.484375 56.78125 20.515625 
Q 56.78125 9.90625 50.3125 4.234375 
Q 43.84375 -1.421875 31.78125 -1.421875 
Q 19.734375 -1.421875 13.25 4.234375 
Q 6.78125 9.90625 6.78125 20.515625 
Q 6.78125 27.484375 10.78125 32.3125 
Q 14.796875 37.15625 21.921875 38.8125 
z
M 18.3125 54.390625 
Q 18.3125 48.734375 21.84375 45.5625 
Q 25.390625 42.390625 31.78125 42.390625 
Q 38.140625 42.390625 41.71875 45.5625 
Q 45.3125 48.734375 45.3125 54.390625 
Q 45.3125 60.0625 41.71875 63.234375 
Q 38.140625 66.40625 31.78125 66.40625 
Q 25.390625 66.40625 21.84375 63.234375 
Q 18.3125 60.0625 18.3125 54.390625 
z
" id="DejaVuSans-38"/>
      </defs>
      <g transform="translate(325.604801 322.182437)scale(0.1 -0.1)">
       <use xlink:href="#DejaVuSans-30"/>
       <use x="63.623047" xlink:href="#DejaVuSans-2e"/>
       <use x="95.410156" xlink:href="#DejaVuSans-38"/>
      </g>
     </g>
    </g>
    <g id="xtick_6">
     <g id="line2d_6">
      <g>
       <use style="stroke:#000000;stroke-width:0.8;" x="398.487273" xlink:href="#m6a628f2c0b" y="307.584"/>
      </g>
     </g>
     <g id="text_6">
      <!-- 1.0 -->
      <defs>
       <path d="M 12.40625 8.296875 
L 28.515625 8.296875 
L 28.515625 63.921875 
L 10.984375 60.40625 
L 10.984375 69.390625 
L 28.421875 72.90625 
L 38.28125 72.90625 
L 38.28125 8.296875 
L 54.390625 8.296875 
L 54.390625 0 
L 12.40625 0 
z
" id="DejaVuSans-31"/>
      </defs>
      <g transform="translate(390.53571 322.182437)scale(0.1 -0.1)">
       <use xlink:href="#DejaVuSans-31"/>
       <use x="63.623047" xlink:href="#DejaVuSans-2e"/>
       <use x="95.410156" xlink:href="#DejaVuSans-30"/>
      </g>
     </g>
    </g>
    <g id="text_7">
     <!-- Recall -->
     <defs>
      <path d="M 44.390625 34.1875 
Q 47.5625 33.109375 50.5625 29.59375 
Q 53.5625 26.078125 56.59375 19.921875 
L 66.609375 0 
L 56 0 
L 46.6875 18.703125 
Q 43.0625 26.03125 39.671875 28.421875 
Q 36.28125 30.8125 30.421875 30.8125 
L 19.671875 30.8125 
L 19.671875 0 
L 9.8125 0 
L 9.8125 72.90625 
L 32.078125 72.90625 
Q 44.578125 72.90625 50.734375 67.671875 
Q 56.890625 62.453125 56.890625 51.90625 
Q 56.890625 45.015625 53.6875 40.46875 
Q 50.484375 35.9375 44.390625 34.1875 
z
M 19.671875 64.796875 
L 19.671875 38.921875 
L 32.078125 38.921875 
Q 39.203125 38.921875 42.84375 42.21875 
Q 46.484375 45.515625 46.484375 51.90625 
Q 46.484375 58.296875 42.84375 61.546875 
Q 39.203125 64.796875 32.078125 64.796875 
z
" id="DejaVuSans-52"/>
      <path d="M 56.203125 29.59375 
L 56.203125 25.203125 
L 14.890625 25.203125 
Q 15.484375 15.921875 20.484375 11.0625 
Q 25.484375 6.203125 34.421875 6.203125 
Q 39.59375 6.203125 44.453125 7.46875 
Q 49.3125 8.734375 54.109375 11.28125 
L 54.109375 2.78125 
Q 49.265625 0.734375 44.1875 -0.34375 
Q 39.109375 -1.421875 33.890625 -1.421875 
Q 20.796875 -1.421875 13.15625 6.1875 
Q 5.515625 13.8125 5.515625 26.8125 
Q 5.515625 40.234375 12.765625 48.109375 
Q 20.015625 56 32.328125 56 
Q 43.359375 56 49.78125 48.890625 
Q 56.203125 41.796875 56.203125 29.59375 
z
M 47.21875 32.234375 
Q 47.125 39.59375 43.09375 43.984375 
Q 39.0625 48.390625 32.421875 48.390625 
Q 24.90625 48.390625 20.390625 44.140625 
Q 15.875 39.890625 15.1875 32.171875 
z
" id="DejaVuSans-65"/>
      <path d="M 48.78125 52.59375 
L 48.78125 44.1875 
Q 44.96875 46.296875 41.140625 47.34375 
Q 37.3125 48.390625 33.40625 48.390625 
Q 24.65625 48.390625 19.8125 42.84375 
Q 14.984375 37.3125 14.984375 27.296875 
Q 14.984375 17.28125 19.8125 11.734375 
Q 24.65625 6.203125 33.40625 6.203125 
Q 37.3125 6.203125 41.140625 7.25 
Q 44.96875 8.296875 48.78125 10.40625 
L 48.78125 2.09375 
Q 45.015625 0.34375 40.984375 -0.53125 
Q 36.96875 -1.421875 32.421875 -1.421875 
Q 20.0625 -1.421875 12.78125 6.34375 
Q 5.515625 14.109375 5.515625 27.296875 
Q 5.515625 40.671875 12.859375 48.328125 
Q 20.21875 56 33.015625 56 
Q 37.15625 56 41.109375 55.140625 
Q 45.0625 54.296875 48.78125 52.59375 
z
" id="DejaVuSans-63"/>
      <path d="M 34.28125 27.484375 
Q 23.390625 27.484375 19.1875 25 
Q 14.984375 22.515625 14.984375 16.5 
Q 14.984375 11.71875 18.140625 8.90625 
Q 21.296875 6.109375 26.703125 6.109375 
Q 34.1875 6.109375 38.703125 11.40625 
Q 43.21875 16.703125 43.21875 25.484375 
L 43.21875 27.484375 
z
M 52.203125 31.203125 
L 52.203125 0 
L 43.21875 0 
L 43.21875 8.296875 
Q 40.140625 3.328125 35.546875 0.953125 
Q 30.953125 -1.421875 24.3125 -1.421875 
Q 15.921875 -1.421875 10.953125 3.296875 
Q 6 8.015625 6 15.921875 
Q 6 25.140625 12.171875 29.828125 
Q 18.359375 34.515625 30.609375 34.515625 
L 43.21875 34.515625 
L 43.21875 35.40625 
Q 43.21875 41.609375 39.140625 45 
Q 35.0625 48.390625 27.6875 48.390625 
Q 23 48.390625 18.546875 47.265625 
Q 14.109375 46.140625 10.015625 43.890625 
L 10.015625 52.203125 
Q 14.9375 54.109375 19.578125 55.046875 
Q 24.21875 56 28.609375 56 
Q 40.484375 56 46.34375 49.84375 
Q 52.203125 43.703125 52.203125 31.203125 
z
" id="DejaVuSans-61"/>
      <path d="M 9.421875 75.984375 
L 18.40625 75.984375 
L 18.40625 0 
L 9.421875 0 
z
" id="DejaVuSans-6c"/>
     </defs>
     <g transform="translate(216.479219 338.140094)scale(0.13 -0.13)">
      <use xlink:href="#DejaVuSans-52"/>
      <use x="69.419922" xlink:href="#DejaVuSans-65"/>
      <use x="130.943359" xlink:href="#DejaVuSans-63"/>
      <use x="185.923828" xlink:href="#DejaVuSans-61"/>
      <use x="247.203125" xlink:href="#DejaVuSans-6c"/>
      <use x="274.986328" xlink:href="#DejaVuSans-6c"/>
     </g>
    </g>
   </g>
   <g id="matplotlib.axis_2">
    <g id="ytick_1">
     <g id="line2d_7">
      <defs>
       <path d="M 0 0 
L -3.5 0 
" id="me7ac0644a9" style="stroke:#000000;stroke-width:0.8;"/>
      </defs>
      <g>
       <use style="stroke:#000000;stroke-width:0.8;" x="57.6" xlink:href="#me7ac0644a9" y="295.488"/>
      </g>
     </g>
     <g id="text_8">
      <!-- 0.0 -->
      <g transform="translate(34.696875 299.287219)scale(0.1 -0.1)">
       <use xlink:href="#DejaVuSans-30"/>
       <use x="63.623047" xlink:href="#DejaVuSans-2e"/>
       <use x="95.410156" xlink:href="#DejaVuSans-30"/>
      </g>
     </g>
    </g>
    <g id="ytick_2">
     <g id="line2d_8">
      <g>
       <use style="stroke:#000000;stroke-width:0.8;" x="57.6" xlink:href="#me7ac0644a9" y="247.104"/>
      </g>
     </g>
     <g id="text_9">
      <!-- 0.2 -->
      <g transform="translate(34.696875 250.903219)scale(0.1 -0.1)">
       <use xlink:href="#DejaVuSans-30"/>
       <use x="63.623047" xlink:href="#DejaVuSans-2e"/>
       <use x="95.410156" xlink:href="#DejaVuSans-32"/>
      </g>
     </g>
    </g>
    <g id="ytick_3">
     <g id="line2d_9">
      <g>
       <use style="stroke:#000000;stroke-width:0.8;" x="57.6" xlink:href="#me7ac0644a9" y="198.72"/>
      </g>
     </g>
     <g id="text_10">
      <!-- 0.4 -->
      <g transform="translate(34.696875 202.519219)scale(0.1 -0.1)">
       <use xlink:href="#DejaVuSans-30"/>
       <use x="63.623047" xlink:href="#DejaVuSans-2e"/>
       <use x="95.410156" xlink:href="#DejaVuSans-34"/>
      </g>
     </g>
    </g>
    <g id="ytick_4">
     <g id="line2d_10">
      <g>
       <use style="stroke:#000000;stroke-width:0.8;" x="57.6" xlink:href="#me7ac0644a9" y="150.336"/>
      </g>
     </g>
     <g id="text_11">
      <!-- 0.6 -->
      <g transform="translate(34.696875 154.135219)scale(0.1 -0.1)">
       <use xlink:href="#DejaVuSans-30"/>
       <use x="63.623047" xlink:href="#DejaVuSans-2e"/>
       <use x="95.410156" xlink:href="#DejaVuSans-36"/>
      </g>
     </g>
    </g>
    <g id="ytick_5">
     <g id="line2d_11">
      <g>
       <use style="stroke:#000000;stroke-width:0.8;" x="57.6" xlink:href="#me7ac0644a9" y="101.952"/>
      </g>
     </g>
     <g id="text_12">
      <!-- 0.8 -->
      <g transform="translate(34.696875 105.751219)scale(0.1 -0.1)">
       <use xlink:href="#DejaVuSans-30"/>
       <use x="63.623047" xlink:href="#DejaVuSans-2e"/>
       <use x="95.410156" xlink:href="#DejaVuSans-38"/>
      </g>
     </g>
    </g>
    <g id="ytick_6">
     <g id="line2d_12">
      <g>
       <use style="stroke:#000000;stroke-width:0.8;" x="57.6" xlink:href="#me7ac0644a9" y="53.568"/>
      </g>
     </g>
     <g id="text_13">
      <!-- 1.0 -->
      <g transform="translate(34.696875 57.367219)scale(0.1 -0.1)">
       <use xlink:href="#DejaVuSans-31"/>
       <use x="63.623047" xlink:href="#DejaVuSans-2e"/>
       <use x="95.410156" xlink:href="#DejaVuSans-30"/>
      </g>
     </g>
    </g>
    <g id="text_14">
     <!-- Precision -->
     <defs>
      <path d="M 19.671875 64.796875 
L 19.671875 37.40625 
L 32.078125 37.40625 
Q 38.96875 37.40625 42.71875 40.96875 
Q 46.484375 44.53125 46.484375 51.125 
Q 46.484375 57.671875 42.71875 61.234375 
Q 38.96875 64.796875 32.078125 64.796875 
z
M 9.8125 72.90625 
L 32.078125 72.90625 
Q 44.34375 72.90625 50.609375 67.359375 
Q 56.890625 61.8125 56.890625 51.125 
Q 56.890625 40.328125 50.609375 34.8125 
Q 44.34375 29.296875 32.078125 29.296875 
L 19.671875 29.296875 
L 19.671875 0 
L 9.8125 0 
z
" id="DejaVuSans-50"/>
      <path d="M 41.109375 46.296875 
Q 39.59375 47.171875 37.8125 47.578125 
Q 36.03125 48 33.890625 48 
Q 26.265625 48 22.1875 43.046875 
Q 18.109375 38.09375 18.109375 28.8125 
L 18.109375 0 
L 9.078125 0 
L 9.078125 54.6875 
L 18.109375 54.6875 
L 18.109375 46.1875 
Q 20.953125 51.171875 25.484375 53.578125 
Q 30.03125 56 36.53125 56 
Q 37.453125 56 38.578125 55.875 
Q 39.703125 55.765625 41.0625 55.515625 
z
" id="DejaVuSans-72"/>
      <path d="M 9.421875 54.6875 
L 18.40625 54.6875 
L 18.40625 0 
L 9.421875 0 
z
M 9.421875 75.984375 
L 18.40625 75.984375 
L 18.40625 64.59375 
L 9.421875 64.59375 
z
" id="DejaVuSans-69"/>
      <path d="M 44.28125 53.078125 
L 44.28125 44.578125 
Q 40.484375 46.53125 36.375 47.5 
Q 32.28125 48.484375 27.875 48.484375 
Q 21.1875 48.484375 17.84375 46.4375 
Q 14.5 44.390625 14.5 40.28125 
Q 14.5 37.15625 16.890625 35.375 
Q 19.28125 33.59375 26.515625 31.984375 
L 29.59375 31.296875 
Q 39.15625 29.25 43.1875 25.515625 
Q 47.21875 21.78125 47.21875 15.09375 
Q 47.21875 7.46875 41.1875 3.015625 
Q 35.15625 -1.421875 24.609375 -1.421875 
Q 20.21875 -1.421875 15.453125 -0.5625 
Q 10.6875 0.296875 5.421875 2 
L 5.421875 11.28125 
Q 10.40625 8.6875 15.234375 7.390625 
Q 20.0625 6.109375 24.8125 6.109375 
Q 31.15625 6.109375 34.5625 8.28125 
Q 37.984375 10.453125 37.984375 14.40625 
Q 37.984375 18.0625 35.515625 20.015625 
Q 33.0625 21.96875 24.703125 23.78125 
L 21.578125 24.515625 
Q 13.234375 26.265625 9.515625 29.90625 
Q 5.8125 33.546875 5.8125 39.890625 
Q 5.8125 47.609375 11.28125 51.796875 
Q 16.75 56 26.8125 56 
Q 31.78125 56 36.171875 55.265625 
Q 40.578125 54.546875 44.28125 53.078125 
z
" id="DejaVuSans-73"/>
      <path d="M 30.609375 48.390625 
Q 23.390625 48.390625 19.1875 42.75 
Q 14.984375 37.109375 14.984375 27.296875 
Q 14.984375 17.484375 19.15625 11.84375 
Q 23.34375 6.203125 30.609375 6.203125 
Q 37.796875 6.203125 41.984375 11.859375 
Q 46.1875 17.53125 46.1875 27.296875 
Q 46.1875 37.015625 41.984375 42.703125 
Q 37.796875 48.390625 30.609375 48.390625 
z
M 30.609375 56 
Q 42.328125 56 49.015625 48.375 
Q 55.71875 40.765625 55.71875 27.296875 
Q 55.71875 13.875 49.015625 6.21875 
Q 42.328125 -1.421875 30.609375 -1.421875 
Q 18.84375 -1.421875 12.171875 6.21875 
Q 5.515625 13.875 5.515625 27.296875 
Q 5.515625 40.765625 12.171875 48.375 
Q 18.84375 56 30.609375 56 
z
" id="DejaVuSans-6f"/>
      <path d="M 54.890625 33.015625 
L 54.890625 0 
L 45.90625 0 
L 45.90625 32.71875 
Q 45.90625 40.484375 42.875 44.328125 
Q 39.84375 48.1875 33.796875 48.1875 
Q 26.515625 48.1875 22.3125 43.546875 
Q 18.109375 38.921875 18.109375 30.90625 
L 18.109375 0 
L 9.078125 0 
L 9.078125 54.6875 
L 18.109375 54.6875 
L 18.109375 46.1875 
Q 21.34375 51.125 25.703125 53.5625 
Q 30.078125 56 35.796875 56 
Q 45.21875 56 50.046875 50.171875 
Q 54.890625 44.34375 54.890625 33.015625 
z
" id="DejaVuSans-6e"/>
     </defs>
     <g transform="translate(27.993281 203.784094)rotate(-90)scale(0.13 -0.13)">
      <use xlink:href="#DejaVuSans-50"/>
      <use x="60.287109" xlink:href="#DejaVuSans-72"/>
      <use x="101.369141" xlink:href="#DejaVuSans-65"/>
      <use x="162.892578" xlink:href="#DejaVuSans-63"/>
      <use x="217.873047" xlink:href="#DejaVuSans-69"/>
      <use x="245.65625" xlink:href="#DejaVuSans-73"/>
      <use x="297.755859" xlink:href="#DejaVuSans-69"/>
      <use x="325.539062" xlink:href="#DejaVuSans-6f"/>
      <use x="386.720703" xlink:href="#DejaVuSans-6e"/>
     </g>
    </g>
   </g>
   <g id="line2d_13">
    <path clip-path="url(#pf3ead9d733)" d="M 236.16 53.568 
L 73.832727 53.568 
L 237.497475 57.256742 
L 238.821103 60.433159 
L 239.957345 64.634226 
L 240.956374 66.990922 
L 242.299227 69.142689 
L 243.503377 70.577199 
L 244.415255 72.114175 
L 245.666722 73.241291 
L 246.912276 74.470872 
L 248.740669 75.393057 
L 251.105204 76.110313 
L 253.633607 77.237428 
L 256.547686 77.852219 
L 259.136632 78.979334 
L 262.218034 79.184264 
L 265.438103 79.90152 
L 269.260384 81.028635 
L 273.782353 81.745891 
L 278.128497 82.258216 
L 282.503357 82.565611 
L 287.383273 83.180402 
L 291.963309 84.409982 
L 296.090383 85.537098 
L 302.33056 85.844493 
L 306.235083 87.176539 
L 310.518625 87.893794 
L 316.004877 88.508584 
L 318.975044 90.148025 
L 322.419669 90.557886 
L 326.384058 91.275141 
L 330.910358 92.402257 
L 334.532173 92.914582 
L 338.008462 93.631837 
L 340.858707 94.656488 
L 343.777996 95.783604 
L 346.277981 97.115649 
L 349.188937 98.037835 
L 351.259525 99.267416 
L 353.762956 99.882206 
L 356.21222 101.111787 
L 358.54841 102.648762 
L 361.25695 103.263553 
L 362.776825 104.800529 
L 364.718174 105.722714 
L 366.864045 106.542435 
L 368.622908 107.362155 
L 369.812695 108.284341 
L 372.297484 109.821316 
L 373.040477 111.153362 
L 374.613143 112.178013 
L 376.343993 113.510058 
L 377.680493 114.432244 
L 378.695498 115.55936 
L 379.451584 116.17415 
L 379.774178 117.916056 
L 380.154258 119.145637 
L 381.220327 120.375217 
L 381.964027 121.604798 
L 382.766388 122.322053 
L 383.387061 123.244239 
L 383.283576 124.47382 
L 384.020606 126.318191 
L 385.181759 127.650236 
L 385.623964 129.084747 
L 385.911262 130.211863 
L 386.593022 131.134048 
L 387.258323 132.466094 
L 387.950414 133.59321 
L 389.033268 134.925255 
L 389.344936 136.359766 
L 390.062693 137.794277 
L 390.584087 139.433718 
L 391.75432 140.663299 
L 392.487057 143.12246 
L 392.833543 145.171761 
L 392.787733 146.401342 
L 393.344673 149.065433 
L 393.69953 151.729525 
L 394.339805 152.959105 
L 394.502343 155.315802 
L 395.601455 158.389753 
L 395.79609 160.643985 
L 395.748622 163.000681 
L 395.94694 165.562307 
L 395.881699 168.841189 
L 396.074481 172.325001 
L 396.025697 174.784163 
L 395.959685 177.960579 
L 396.761916 180.419741 
L 397.019576 182.673972 
L 396.974437 186.055319 
L 397.2374 189.436666 
L 397.844392 192.203222 
L 398.150843 196.711685 
L 398.14042 199.683172 
L 398.487273 203.269449 
L 398.487273 208.597632 
L 398.487273 215.975116 
L 398.487273 226.221621 
L 398.487273 295.488 
" style="fill:none;stroke:#000000;stroke-linecap:square;stroke-width:2;"/>
   </g>
   <g id="line2d_14">
    <path clip-path="url(#pf3ead9d733)" d="M 236.16 53.568 
L 73.832727 53.568 
L 255.170543 75.085662 
L 278.593693 81.643426 
L 302.818891 90.455421 
L 329.211741 97.93537 
L 354.314485 109.411456 
L 369.128397 118.223451 
L 378.102857 128.777352 
L 385.559475 142.30274 
L 390.842721 159.516869 
L 394.096093 183.391227 
L 398.487273 295.488 
" style="fill:none;stroke:#ff0000;stroke-dasharray:2,3.3;stroke-dashoffset:0;stroke-width:2;"/>
   </g>
   <g id="line2d_15">
    <path clip-path="url(#pf3ead9d733)" d="M 236.400995 53.568 
L 73.832727 53.568 
L 236.366611 53.670465 
L 236.297858 53.97786 
L 236.366874 53.97786 
L 236.470641 54.080325 
L 236.332946 54.797581 
L 236.402228 54.797581 
L 236.714965 54.900046 
L 236.57658 55.309906 
L 236.681059 55.309906 
L 236.716153 55.412371 
L 236.716869 55.719766 
L 237.032165 55.822231 
L 236.997458 55.924696 
L 237.102748 55.924696 
L 237.84433 56.027161 
L 237.740084 56.334557 
L 237.846517 56.334557 
L 238.131871 56.437022 
L 238.09708 56.539487 
L 238.204069 56.539487 
L 238.239763 56.539487 
L 238.204957 56.641952 
L 238.318701 57.359207 
L 238.679177 57.461672 
L 238.644239 57.564137 
L 238.752407 57.564137 
L 238.9704 57.666602 
L 238.935433 57.769067 
L 239.044077 57.769067 
L 239.481548 57.871532 
L 239.41298 58.178928 
L 239.485939 58.178928 
L 239.780016 58.281393 
L 239.744966 58.383858 
L 239.854963 58.383858 
L 240.298248 58.486323 
L 240.301921 58.691253 
L 240.338865 58.691253 
L 240.375825 58.691253 
L 240.34072 58.793718 
L 240.270464 58.998648 
L 240.381447 58.998648 
L 240.903447 59.101113 
L 240.944993 59.306043 
L 241.096608 59.408508 
L 241.101027 59.613438 
L 241.138472 59.613438 
L 241.290721 59.715903 
L 241.255475 59.818368 
L 241.368167 59.818368 
L 241.445752 59.920834 
L 241.450505 60.125764 
L 241.488188 60.125764 
L 241.75497 60.228229 
L 241.722161 60.433159 
L 241.797889 60.433159 
L 241.876265 60.535624 
L 241.840905 60.638089 
L 241.954783 60.638089 
L 241.995414 60.740554 
L 241.962649 60.945484 
L 242.03876 60.945484 
L 242.270278 61.047949 
L 242.234847 61.150414 
L 242.34951 61.150414 
L 243.040782 61.150414 
L 243.005349 61.252879 
L 242.969899 61.355344 
L 243.085667 61.355344 
L 243.124292 61.355344 
L 243.088829 61.457809 
L 243.095161 61.66274 
L 243.133841 61.66274 
L 243.291999 61.765205 
L 243.220939 61.970135 
L 243.337357 61.970135 
L 244.117586 61.970135 
L 244.082049 62.0726 
L 244.046497 62.175065 
L 244.124918 62.175065 
L 244.167846 62.27753 
L 244.132264 62.379995 
L 244.210834 62.379995 
L 244.332597 62.48246 
L 244.296987 62.584925 
L 244.375778 62.584925 
L 244.810434 62.584925 
L 244.782813 62.89232 
L 245.144626 62.994785 
L 245.108956 63.09725 
L 245.188675 63.09725 
L 245.312656 63.199715 
L 245.276959 63.30218 
L 245.356905 63.30218 
L 245.597191 63.30218 
L 245.561486 63.404645 
L 245.525764 63.507111 
L 245.606013 63.507111 
L 246.013003 63.609576 
L 245.941503 63.814506 
L 246.022248 63.814506 
L 246.269689 63.916971 
L 246.279202 64.121901 
L 246.690786 64.224366 
L 246.654968 64.326831 
L 246.736565 64.326831 
L 246.864162 64.429296 
L 246.828317 64.531761 
L 246.910151 64.531761 
L 247.531775 64.634226 
L 247.495919 64.736691 
L 247.578458 64.736691 
L 247.915 64.839156 
L 247.848802 65.146551 
L 247.890304 65.146551 
L 248.228798 65.249017 
L 248.192868 65.351482 
L 248.276294 65.351482 
L 248.658694 65.453947 
L 248.622746 65.556412 
L 248.706659 65.556412 
L 250.109693 65.658877 
L 250.073766 65.761342 
L 250.159154 65.761342 
L 250.508501 65.863807 
L 250.472558 65.966272 
L 250.558409 65.966272 
L 250.651391 66.068737 
L 250.550435 66.478597 
L 250.593485 66.478597 
L 251.205741 66.581062 
L 251.17706 66.785992 
L 251.220474 66.785992 
L 251.488918 66.888457 
L 251.416772 67.093388 
L 251.503973 67.093388 
L 251.861358 67.195853 
L 251.789146 67.400783 
L 251.876831 67.400783 
L 252.192323 67.503248 
L 252.288414 67.605713 
L 252.384695 67.708178 
L 252.34854 67.810643 
L 252.436936 67.810643 
L 252.977509 67.913108 
L 252.941348 68.015573 
L 253.030413 68.015573 
L 253.261977 68.118038 
L 253.225797 68.220503 
L 253.315225 68.220503 
L 253.952629 68.322968 
L 253.91645 68.425433 
L 254.00665 68.425433 
L 254.604426 68.527898 
L 254.568247 68.630363 
L 254.659184 68.630363 
L 254.896364 68.732828 
L 254.860167 68.835294 
L 254.95148 68.835294 
L 255.465116 68.937759 
L 255.428917 69.040224 
L 255.520888 69.040224 
L 256.409583 69.142689 
L 256.430225 69.347619 
L 257.329506 69.450084 
L 257.29333 69.552549 
L 257.387413 69.552549 
L 257.823115 69.655014 
L 257.786936 69.757479 
L 257.881611 69.757479 
L 258.510926 69.859944 
L 258.438569 70.064874 
L 258.534046 70.064874 
L 258.689109 70.167339 
L 258.616675 70.372269 
L 258.712467 70.372269 
L 259.192924 70.372269 
L 259.156715 70.474734 
L 259.120488 70.577199 
L 259.216891 70.577199 
L 260.345446 70.679665 
L 260.334591 70.98706 
L 260.457937 71.19199 
L 261.15977 71.294455 
L 261.064184 71.704315 
L 261.113638 71.704315 
L 261.212623 71.704315 
L 261.14003 71.909245 
L 261.239134 71.909245 
L 262.099562 72.01171 
L 262.063288 72.114175 
L 262.163464 72.114175 
L 262.528981 72.21664 
L 262.456412 72.421571 
L 262.557145 72.421571 
L 263.229052 72.524036 
L 263.258112 72.728966 
L 264.07504 72.728966 
L 264.038801 72.831431 
L 264.002542 72.933896 
L 264.10517 72.933896 
L 264.635385 73.036361 
L 264.59914 73.138826 
L 264.702509 73.138826 
L 265.288874 73.241291 
L 265.07123 73.856081 
L 265.175447 73.856081 
L 266.398743 73.958546 
L 266.362495 74.061011 
L 266.468222 74.061011 
L 267.335436 74.163476 
L 267.226777 74.470872 
L 267.333654 74.470872 
L 268.463037 74.470872 
L 268.426889 74.573337 
L 268.390721 74.675802 
L 268.498989 74.675802 
L 269.042143 74.675802 
L 269.006015 74.778267 
L 268.969868 74.880732 
L 269.078883 74.880732 
L 269.699445 74.983197 
L 269.663329 75.085662 
L 269.773223 75.085662 
L 269.993381 75.085662 
L 269.957277 75.188127 
L 269.921153 75.290592 
L 270.031439 75.290592 
L 270.715269 75.393057 
L 270.679186 75.495522 
L 270.79043 75.495522 
L 270.846099 75.495522 
L 270.810012 75.597987 
L 270.773904 75.700452 
L 270.885359 75.700452 
L 272.650021 75.802917 
L 272.614068 75.905382 
L 272.727722 75.905382 
L 273.663197 76.007848 
L 273.612955 76.315243 
L 273.670446 76.315243 
L 274.675152 76.417708 
L 274.639316 76.520173 
L 274.755624 76.520173 
L 275.596506 76.622638 
L 275.560741 76.725103 
L 275.678229 76.725103 
L 275.877872 76.827568 
L 275.842105 76.930033 
L 275.901051 76.930033 
L 276.101427 77.032498 
L 275.958202 77.442358 
L 276.017355 77.442358 
L 276.873074 77.544823 
L 276.801515 77.749753 
L 276.861247 77.749753 
L 277.100526 77.749753 
L 277.06475 77.852219 
L 277.028954 77.954684 
L 277.088876 77.954684 
L 278.0773 78.057149 
L 278.005862 78.262079 
L 278.066447 78.262079 
L 278.491555 78.262079 
L 278.409564 78.671939 
L 278.862397 78.774404 
L 278.826667 78.876869 
L 278.887914 78.876869 
L 279.343529 78.979334 
L 279.307825 79.081799 
L 279.369418 79.081799 
L 279.765944 79.184264 
L 279.73026 79.286729 
L 279.792165 79.286729 
L 279.978105 79.286729 
L 279.942431 79.389194 
L 279.906736 79.491659 
L 279.968806 79.491659 
L 280.306355 79.594125 
L 280.297325 79.799055 
L 282.468391 79.90152 
L 282.432944 80.003985 
L 282.496697 80.003985 
L 283.74471 80.10645 
L 283.703344 80.413845 
L 285.691277 80.51631 
L 285.656181 80.618775 
L 285.722108 80.618775 
L 286.415023 80.72124 
L 286.38 80.823705 
L 286.446442 80.823705 
L 286.744289 80.92617 
L 286.709282 81.028635 
L 286.775994 81.028635 
L 286.874543 81.1311 
L 286.804479 81.33603 
L 286.871346 81.33603 
L 287.10422 81.438496 
L 287.069182 81.540961 
L 287.13628 81.540961 
L 287.370085 81.643426 
L 287.335054 81.745891 
L 287.402384 81.745891 
L 287.907594 81.848356 
L 287.872611 81.950821 
L 287.940345 81.950821 
L 288.653381 82.053286 
L 288.583557 82.258216 
L 288.65184 82.258216 
L 289.23351 82.360681 
L 289.198649 82.463146 
L 289.267391 82.463146 
L 290.616836 82.565611 
L 290.582162 82.668076 
L 290.651856 82.668076 
L 291.45715 82.770541 
L 291.458302 82.975471 
L 293.196767 83.077936 
L 293.162436 83.180402 
L 293.233973 83.180402 
L 293.486293 83.282867 
L 293.451979 83.385332 
L 293.523773 83.385332 
L 293.849188 83.487797 
L 293.780595 83.692727 
L 293.852709 83.692727 
L 294.035055 83.795192 
L 294.000752 83.897657 
L 294.073081 83.897657 
L 295.202725 84.000122 
L 295.134437 84.205052 
L 295.207619 84.205052 
L 295.942108 84.205052 
L 295.908073 84.307517 
L 295.879605 84.614912 
L 296.36335 84.717377 
L 296.261158 85.024773 
L 296.335375 85.024773 
L 296.896911 85.127238 
L 296.828867 85.332168 
L 296.903572 85.332168 
L 297.39397 85.434633 
L 297.326008 85.639563 
L 297.401157 85.639563 
L 297.476356 85.639563 
L 297.442369 85.742028 
L 297.374325 85.946958 
L 297.449617 85.946958 
L 297.641797 86.049423 
L 297.607773 86.151888 
L 297.683296 86.151888 
L 298.559704 86.254353 
L 298.568144 86.459283 
L 298.992801 86.561748 
L 298.958948 86.664213 
L 299.035574 86.664213 
L 299.231946 86.766679 
L 299.24112 86.971609 
L 301.068565 87.074074 
L 301.035031 87.176539 
L 301.113268 87.176539 
L 301.471801 87.279004 
L 301.438313 87.381469 
L 301.516906 87.381469 
L 301.753011 87.381469 
L 301.719562 87.483934 
L 301.68609 87.586399 
L 301.764932 87.586399 
L 302.205748 87.688864 
L 302.17234 87.791329 
L 302.251597 87.791329 
L 302.535825 87.893794 
L 302.502451 87.996259 
L 302.582016 87.996259 
L 303.267364 88.098724 
L 303.234105 88.201189 
L 303.31426 88.201189 
L 303.635437 88.201189 
L 303.602238 88.303654 
L 303.549723 88.713515 
L 303.919944 88.81598 
L 303.853441 89.02091 
L 303.934348 89.02091 
L 304.144194 89.123375 
L 304.077685 89.328305 
L 304.158872 89.328305 
L 305.055717 89.328305 
L 304.989524 89.533235 
L 305.071436 89.533235 
L 305.448843 89.6357 
L 305.398847 90.04556 
L 306.192623 90.148025 
L 306.159649 90.25049 
L 306.242682 90.25049 
L 306.325775 90.25049 
L 306.292813 90.352956 
L 306.226819 90.557886 
L 306.310024 90.557886 
L 306.977823 90.557886 
L 306.944953 90.660351 
L 306.91206 90.762816 
L 306.995841 90.762816 
L 308.65168 90.865281 
L 308.639098 91.172676 
L 309.375687 91.275141 
L 309.278261 91.582536 
L 309.364096 91.582536 
L 310.540165 91.685001 
L 310.530204 91.992396 
L 311.37024 92.094861 
L 311.305971 92.299792 
L 311.393599 92.299792 
L 311.712694 92.402257 
L 311.680602 92.504722 
L 311.768597 92.504722 
L 312.000938 92.607187 
L 311.993038 92.914582 
L 312.848145 93.017047 
L 312.809496 93.426907 
L 312.956086 93.529372 
L 312.981549 93.734302 
L 313.071051 93.734302 
L 313.039072 93.836767 
L 313.007068 93.939233 
L 313.09668 93.939233 
L 313.60389 94.041698 
L 313.571991 94.144163 
L 313.662119 94.144163 
L 314.899467 94.246628 
L 314.895796 94.554023 
L 314.987107 94.554023 
L 314.955467 94.656488 
L 314.923802 94.758953 
L 315.015228 94.758953 
L 315.717659 94.861418 
L 315.686152 94.963883 
L 315.778251 94.963883 
L 316.239803 94.963883 
L 316.208411 95.066348 
L 316.145555 95.271278 
L 316.238146 95.271278 
L 317.04344 95.373743 
L 317.012187 95.476208 
L 317.105538 95.476208 
L 317.198961 95.476208 
L 317.167732 95.578673 
L 317.13648 95.681139 
L 317.230022 95.681139 
L 317.604912 95.681139 
L 317.573755 95.783604 
L 317.668214 96.090999 
L 317.825421 96.193464 
L 317.763037 96.398394 
L 317.857401 96.398394 
L 318.80507 96.398394 
L 318.774113 96.500859 
L 318.683214 97.115649 
L 318.778635 97.115649 
L 318.74756 97.218114 
L 318.780907 97.423044 
L 318.972273 97.423044 
L 318.910103 97.627975 
L 319.005949 97.627975 
L 319.197865 97.627975 
L 319.16682 97.73044 
L 319.169711 98.037835 
L 319.362283 98.037835 
L 319.334375 98.447695 
L 319.430953 98.447695 
L 319.399841 98.55016 
L 319.306357 98.857555 
L 319.403115 98.857555 
L 319.790908 98.857555 
L 319.759828 98.96002 
L 319.728722 99.062485 
L 319.825914 99.062485 
L 321.06568 99.16495 
L 321.004088 99.369881 
L 321.102445 99.369881 
L 321.367261 99.472346 
L 321.336512 99.574811 
L 321.435237 99.574811 
L 321.632923 99.574811 
L 321.571513 99.779741 
L 321.67053 99.779741 
L 322.235744 99.882206 
L 322.20517 99.984671 
L 322.304798 99.984671 
L 322.904248 99.984671 
L 322.873845 100.087136 
L 322.913238 100.292066 
L 324.295553 100.394531 
L 324.276753 100.804391 
L 325.062956 100.906856 
L 325.075592 101.214252 
L 325.486455 101.214252 
L 325.456598 101.316717 
L 325.426716 101.419182 
L 325.529702 101.419182 
L 326.016172 101.521647 
L 325.956647 101.726577 
L 326.060232 101.726577 
L 326.371495 101.726577 
L 326.341818 101.829042 
L 326.312116 101.931507 
L 326.416103 101.931507 
L 327.221641 102.033972 
L 327.192168 102.136437 
L 327.296992 102.136437 
L 327.477496 102.238902 
L 327.448068 102.341367 
L 327.553216 102.341367 
L 328.291695 102.341367 
L 328.262496 102.443832 
L 328.233272 102.546297 
L 328.339184 102.546297 
L 328.841014 102.648762 
L 328.811934 102.751227 
L 328.918442 102.751227 
L 329.025038 102.751227 
L 328.995999 102.853693 
L 328.966935 102.956158 
L 329.073686 102.956158 
L 329.472659 103.058623 
L 329.414736 103.263553 
L 329.522033 103.263553 
L 330.031074 103.366018 
L 329.886713 103.878343 
L 329.994753 103.878343 
L 330.211106 103.878343 
L 330.182261 103.980808 
L 330.232912 104.185738 
L 330.638739 104.288203 
L 330.661355 104.595598 
L 331.618128 104.698064 
L 331.613986 105.107924 
L 332.137565 105.210389 
L 332.162996 105.517784 
L 332.913206 105.620249 
L 332.884954 105.722714 
L 332.996614 105.722714 
L 333.416124 105.825179 
L 333.359859 106.030109 
L 333.472111 106.030109 
L 334.345797 106.132574 
L 334.375414 106.43997 
L 334.91558 106.542435 
L 334.832299 106.84983 
L 334.946322 106.84983 
L 335.174668 106.84983 
L 335.146972 106.952295 
L 335.119252 107.05476 
L 335.233651 107.05476 
L 335.664695 107.157225 
L 335.637117 107.25969 
L 335.752095 107.25969 
L 335.982354 107.25969 
L 336.130717 107.567085 
L 336.36202 107.567085 
L 336.334616 107.66955 
L 336.279735 107.87448 
L 336.627808 107.87448 
L 336.600449 107.976945 
L 336.573065 108.07941 
L 337.011667 108.181875 
L 336.984393 108.284341 
L 337.101194 108.284341 
L 337.073935 108.386806 
L 337.046652 108.489271 
L 337.280724 108.489271 
L 337.253497 108.591736 
L 337.19897 108.796666 
L 337.877358 108.899131 
L 337.850275 109.001596 
L 337.968298 109.001596 
L 337.941233 109.104061 
L 337.914143 109.206526 
L 338.123636 109.308991 
L 338.09658 109.411456 
L 338.571234 109.411456 
L 338.544318 109.513921 
L 338.517377 109.616386 
L 338.728628 109.718851 
L 338.794143 109.923781 
L 338.76723 110.026247 
L 339.245883 110.026247 
L 339.219114 110.128712 
L 339.19232 110.231177 
L 339.432464 110.231177 
L 339.40573 110.333642 
L 339.298553 110.743502 
L 339.419 110.743502 
L 339.392188 110.845967 
L 339.365351 110.948432 
L 339.579968 111.050897 
L 339.499493 111.358292 
L 339.714881 111.460757 
L 339.634371 111.768152 
L 340.460108 111.870618 
L 340.353539 112.280478 
L 340.571887 112.382943 
L 340.545247 112.485408 
L 340.887273 112.587873 
L 340.860717 112.690338 
L 341.107166 112.690338 
L 341.080675 112.792803 
L 341.054159 112.895268 
L 341.301243 112.895268 
L 341.274793 112.997733 
L 341.248318 113.100198 
L 341.717902 113.202663 
L 341.691559 113.305128 
L 342.189669 113.305128 
L 342.163484 113.407593 
L 342.137275 113.510058 
L 343.113951 113.612524 
L 343.088063 113.714989 
L 343.466231 113.714989 
L 343.44046 113.817454 
L 343.414665 113.919919 
L 343.920922 113.919919 
L 343.895292 114.022384 
L 343.843959 114.227314 
L 344.582367 114.329779 
L 344.531465 114.534709 
L 345.018375 114.637174 
L 344.967717 114.842104 
L 345.353583 114.842104 
L 345.328365 114.944569 
L 345.277858 115.149499 
L 345.899114 115.251964 
L 345.823845 115.55936 
L 346.188715 115.661825 
L 346.11361 115.96922 
L 346.37454 115.96922 
L 346.349558 116.071685 
L 346.299522 116.276615 
L 346.561258 116.276615 
L 346.511329 116.481545 
L 346.748874 116.58401 
L 346.723952 116.686475 
L 347.118874 116.686475 
L 347.094082 116.78894 
L 346.919868 117.506196 
L 347.317182 117.506196 
L 347.292354 117.608661 
L 347.217726 117.916056 
L 347.350631 117.916056 
L 347.325759 118.018521 
L 347.300863 118.120986 
L 347.943202 118.223451 
L 347.918523 118.325916 
L 349.263399 118.325916 
L 349.239234 118.428381 
L 349.215046 118.530846 
L 349.485825 118.530846 
L 349.461722 118.633311 
L 349.437595 118.735776 
L 349.821108 118.838241 
L 349.773066 119.043172 
L 349.909333 119.043172 
L 349.885332 119.145637 
L 349.740827 119.760427 
L 350.264864 119.862892 
L 350.216905 120.067822 
L 350.492051 120.067822 
L 350.468149 120.170287 
L 350.420274 120.375217 
L 350.558223 120.375217 
L 350.534306 120.477682 
L 350.486401 120.682612 
L 350.624659 120.682612 
L 350.600727 120.785078 
L 350.52879 121.092473 
L 350.921228 121.194938 
L 350.801595 121.707263 
L 351.056634 121.809728 
L 351.008797 122.014658 
L 351.148643 122.014658 
L 351.124747 122.117123 
L 351.076882 122.322053 
L 351.357351 122.322053 
L 351.3335 122.424518 
L 351.309625 122.526983 
L 351.990278 122.629449 
L 351.919327 122.936844 
L 352.462814 123.039309 
L 352.345165 123.551634 
L 352.749568 123.654099 
L 352.702657 123.859029 
L 352.845741 123.859029 
L 352.822311 123.961494 
L 352.775379 124.166424 
L 353.182751 124.268889 
L 353.15941 124.371355 
L 353.591804 124.371355 
L 353.568626 124.47382 
L 353.522199 124.67875 
L 353.666816 124.67875 
L 353.643629 124.781215 
L 353.597183 124.986145 
L 354.009432 125.08861 
L 353.963221 125.29354 
L 354.108819 125.29354 
L 354.085741 125.396005 
L 354.062639 125.49847 
L 354.354545 125.49847 
L 354.331548 125.600935 
L 354.308526 125.7034 
L 354.725061 125.805865 
L 354.702185 125.90833 
L 354.996135 125.90833 
L 354.973365 126.010795 
L 354.950571 126.11326 
L 355.245398 126.11326 
L 355.222711 126.215726 
L 355.2 126.318191 
L 356.088996 126.318191 
L 356.066658 126.420656 
L 355.999501 126.728051 
L 356.14848 126.728051 
L 356.126114 126.830516 
L 356.103725 126.932981 
L 356.552011 126.932981 
L 356.5298 127.035446 
L 356.507565 127.137911 
L 356.657445 127.137911 
L 356.635254 127.240376 
L 356.61304 127.342841 
L 356.763215 127.342841 
L 356.741045 127.445306 
L 356.718852 127.547771 
L 357.299756 127.650236 
L 357.145495 128.367492 
L 358.036223 128.469957 
L 357.992727 128.674887 
L 358.737229 128.777352 
L 358.694302 128.982282 
L 359.135207 129.084747 
L 359.092572 129.289677 
L 359.401964 129.289677 
L 359.380757 129.392142 
L 359.316996 129.699537 
L 359.472235 129.699537 
L 359.451008 129.802003 
L 359.387189 130.109398 
L 359.698759 130.109398 
L 359.677586 130.211863 
L 359.65639 130.314328 
L 361.205514 130.416793 
L 361.1645 130.621723 
L 361.322636 130.621723 
L 361.302171 130.724188 
L 361.261173 130.929118 
L 362.194955 131.031583 
L 362.154742 131.236513 
L 362.935886 131.338978 
L 362.916113 131.441443 
L 363.218395 131.543909 
L 363.198735 131.646374 
L 363.663992 131.748839 
L 363.546873 132.363629 
L 363.70936 132.363629 
L 363.689844 132.466094 
L 363.611559 132.875954 
L 363.774631 132.875954 
L 363.755086 132.978419 
L 363.578182 133.900605 
L 364.070946 133.900605 
L 364.051425 134.00307 
L 363.973117 134.41293 
L 364.303385 134.41293 
L 364.283918 134.515395 
L 364.225384 134.82279 
L 364.7232 134.82279 
L 364.703895 134.925255 
L 364.665219 135.130186 
L 364.998552 135.130186 
L 364.979349 135.232651 
L 364.960125 135.335116 
L 365.275486 135.437581 
L 365.256388 135.540046 
L 365.424065 135.540046 
L 365.405031 135.642511 
L 365.366895 135.847441 
L 366.021818 135.949906 
L 365.984242 136.154836 
L 366.473773 136.257301 
L 366.455193 136.359766 
L 366.795254 136.359766 
L 366.776829 136.462231 
L 366.758382 136.564696 
L 366.928886 136.564696 
L 366.910506 136.667161 
L 366.855237 136.974557 
L 367.026295 136.974557 
L 367.007918 137.077022 
L 366.98952 137.179487 
L 367.314354 137.281952 
L 367.241178 137.691812 
L 367.413467 137.691812 
L 367.39521 137.794277 
L 367.376931 137.896742 
L 367.722481 137.896742 
L 367.704362 137.999207 
L 367.668062 138.204137 
L 367.841416 138.204137 
L 367.823325 138.306602 
L 367.73255 138.818928 
L 367.906661 138.818928 
L 367.888534 138.921393 
L 367.834023 139.228788 
L 368.008712 139.228788 
L 367.990591 139.331253 
L 367.917894 139.741113 
L 368.093257 139.741113 
L 368.075123 139.843578 
L 368.056966 139.946043 
L 368.232727 139.946043 
L 368.214643 140.048508 
L 368.196538 140.150973 
L 368.725652 140.150973 
L 368.707809 140.253438 
L 368.654152 140.560834 
L 369.16868 140.663299 
L 369.115631 140.970694 
L 369.454721 141.073159 
L 369.401999 141.380554 
L 369.742844 141.483019 
L 369.725402 141.585484 
L 370.067665 141.687949 
L 370.015741 141.995344 
L 370.196231 141.995344 
L 370.17898 142.097809 
L 370.161708 142.200274 
L 370.342617 142.200274 
L 370.325425 142.30274 
L 370.308211 142.405205 
L 370.489541 142.405205 
L 370.472407 142.50767 
L 370.369158 143.12246 
L 370.733901 143.12246 
L 370.716822 143.224925 
L 370.613905 143.839715 
L 370.79733 143.839715 
L 370.780206 143.94218 
L 370.728706 144.249576 
L 371.080061 144.352041 
L 371.045994 144.556971 
L 371.770066 144.659436 
L 371.736711 144.864366 
L 372.27924 144.966831 
L 372.213473 145.376691 
L 372.759931 145.479156 
L 372.727529 145.684086 
L 372.915869 145.684086 
L 372.899746 145.786551 
L 372.851254 146.093947 
L 373.403134 146.196412 
L 373.371322 146.401342 
L 373.561384 146.401342 
L 373.545558 146.503807 
L 373.466126 147.016132 
L 374.024159 147.118597 
L 374.008527 147.221062 
L 374.377204 147.323527 
L 374.284235 147.938318 
L 374.477451 147.938318 
L 374.462001 148.040783 
L 374.259322 149.372828 
L 374.64974 149.372828 
L 374.63424 149.475294 
L 374.618721 149.577759 
L 374.814545 149.577759 
L 374.799123 149.680224 
L 374.737234 150.090084 
L 374.933904 150.090084 
L 374.918499 150.192549 
L 374.76334 151.217199 
L 375.144697 151.319665 
L 375.082944 151.729525 
L 375.282315 151.729525 
L 375.266948 151.83199 
L 375.127718 152.754175 
L 375.328582 152.754175 
L 375.313132 152.85664 
L 375.251128 153.266501 
L 375.452881 153.266501 
L 375.437452 153.368966 
L 375.391043 153.676361 
L 375.796364 153.676361 
L 375.781104 153.778826 
L 375.689114 154.393616 
L 376.082155 154.496081 
L 376.021354 154.905942 
L 376.226506 154.905942 
L 376.211383 155.008407 
L 376.120213 155.623197 
L 376.326553 155.623197 
L 376.311416 155.725662 
L 376.296258 155.828127 
L 376.917758 155.828127 
L 376.902975 155.930592 
L 376.858501 156.237987 
L 377.066767 156.237987 
L 377.052035 156.340452 
L 377.037282 156.442917 
L 377.455207 156.442917 
L 377.440702 156.545382 
L 377.353251 157.160173 
L 377.759849 157.262638 
L 377.716606 157.570033 
L 378.56426 157.570033 
L 378.550357 157.672498 
L 378.48055 158.184823 
L 378.694038 158.184823 
L 378.680158 158.287288 
L 378.610464 158.799614 
L 378.825096 158.799614 
L 378.81124 158.902079 
L 378.783468 159.107009 
L 378.998829 159.107009 
L 378.874169 160.029194 
L 379.091126 160.029194 
L 379.077321 160.131659 
L 379.021904 160.54152 
L 379.663351 160.643985 
L 379.622841 160.95138 
L 379.84236 160.95138 
L 379.828966 161.053845 
L 379.802119 161.258775 
L 380.022399 161.258775 
L 380.009096 161.36124 
L 379.928873 161.97603 
L 380.150521 161.97603 
L 380.137233 162.078496 
L 380.123926 162.180961 
L 380.346199 162.180961 
L 380.333024 162.283426 
L 380.293386 162.590821 
L 380.516591 162.590821 
L 380.503493 162.693286 
L 380.398017 163.513006 
L 380.835225 163.615471 
L 380.638509 165.152447 
L 381.095065 165.152447 
L 381.082115 165.254912 
L 381.043148 165.562307 
L 381.272581 165.562307 
L 381.259715 165.664773 
L 381.15609 166.484493 
L 381.387334 166.484493 
L 381.374458 166.586958 
L 381.361562 166.689423 
L 381.593484 166.689423 
L 381.580734 166.791888 
L 381.567965 166.894353 
L 382.033525 166.894353 
L 382.021069 166.996818 
L 382.008595 167.099283 
L 382.933481 167.201748 
L 382.909789 167.406679 
L 383.145366 167.406679 
L 383.133663 167.509144 
L 383.086675 167.919004 
L 383.323469 167.919004 
L 383.31185 168.021469 
L 383.300212 168.123934 
L 383.775584 168.123934 
L 383.764276 168.226399 
L 383.592546 169.763375 
L 383.833605 169.763375 
L 383.776364 170.2757 
L 384.018696 170.2757 
L 384.007375 170.378165 
L 383.927627 171.095421 
L 384.171797 171.095421 
L 384.160516 171.197886 
L 384.058182 172.120071 
L 384.551386 172.120071 
L 384.540299 172.222536 
L 384.529195 172.325001 
L 384.776762 172.325001 
L 384.765829 172.427466 
L 384.69986 173.042257 
L 384.949152 173.042257 
L 384.938287 173.144722 
L 384.672186 175.603883 
L 384.926763 175.603883 
L 384.915648 175.706348 
L 384.826067 176.526069 
L 385.082874 176.526069 
L 385.071796 176.628534 
L 384.800319 179.087695 
L 385.062739 179.087695 
L 385.0514 179.19016 
L 384.96 180.009881 
L 385.490029 180.009881 
L 385.478949 180.112346 
L 385.423263 180.624671 
L 385.690264 180.624671 
L 385.679289 180.727136 
L 385.64625 181.034531 
L 385.914592 181.034531 
L 385.816454 181.956717 
L 386.087273 181.956717 
L 386.076499 182.059182 
L 386.065708 182.161647 
L 386.599312 182.264112 
L 386.505295 183.186297 
L 386.780293 183.186297 
L 386.769987 183.288762 
L 386.738962 183.596158 
L 387.015381 183.596158 
L 387.005238 183.698623 
L 386.913136 184.620808 
L 387.192422 184.620808 
L 387.182338 184.723273 
L 386.871193 187.797225 
L 387.158648 187.797225 
L 387.106394 188.30955 
L 387.685458 188.30955 
L 387.675465 188.412015 
L 387.625225 188.924341 
L 388.493243 189.026806 
L 388.455812 189.436666 
L 388.750679 189.436666 
L 388.741545 189.539131 
L 388.704838 189.948991 
L 389.001607 189.948991 
L 388.992659 190.051456 
L 388.687574 193.432803 
L 389.301925 193.432803 
L 389.292955 193.535268 
L 389.283967 193.637733 
L 389.592628 193.637733 
L 389.583916 193.740198 
L 389.478029 194.969779 
L 389.791169 194.969779 
L 389.782533 195.072244 
L 389.756523 195.379639 
L 390.071502 195.379639 
L 390.063103 195.482104 
L 390.054687 195.584569 
L 390.370909 195.584569 
L 390.362785 195.687034 
L 390.321917 196.19936 
L 390.640637 196.19936 
L 390.632727 196.301825 
L 390.600927 196.711685 
L 390.921868 196.711685 
L 390.914195 196.81415 
L 390.749392 198.965916 
L 391.078144 198.965916 
L 391.07045 199.068381 
L 391.016143 199.785637 
L 391.348272 199.785637 
L 391.340789 199.888102 
L 391.318245 200.195497 
L 391.65244 200.195497 
L 391.62354 200.605357 
L 391.959827 200.605357 
L 391.952912 200.707822 
L 391.701314 204.294099 
L 392.05139 204.294099 
L 392.044294 204.396564 
L 392.008579 204.908889 
L 392.361715 204.908889 
L 392.354909 205.011355 
L 392.341251 205.216285 
L 392.696333 205.216285 
L 392.68987 205.31875 
L 392.670394 205.626145 
L 393.027835 205.626145 
L 392.78491 209.519817 
L 393.158828 209.519817 
L 393.152574 209.622282 
L 393.12741 210.032142 
L 393.504381 210.032142 
L 393.498491 210.134607 
L 393.359072 212.491304 
L 393.74779 212.491304 
L 393.617455 214.745535 
L 394.017686 214.745535 
L 393.744643 219.458928 
L 394.170058 219.458928 
L 394.164309 219.561393 
L 394.058152 221.405764 
L 394.495618 221.405764 
L 394.490158 221.508229 
L 394.479192 221.713159 
L 394.91964 221.713159 
L 394.914733 221.815624 
L 394.80325 224.069855 
L 395.259174 224.069855 
L 395.254582 224.17232 
L 394.803996 232.984315 
L 395.325053 232.984315 
L 395.319911 233.08678 
L 395.240727 234.623756 
L 396.312033 234.726221 
L 396.208995 237.492778 
L 396.775562 237.492778 
L 396.772548 237.595243 
L 396.360715 248.866399 
L 397.066465 248.866399 
L 397.063349 248.968864 
L 396.941299 252.657606 
L 397.712441 252.657606 
L 397.36 266.080529 
L 397.128886 271.101316 
L 398.487273 271.101316 
L 398.487273 295.488 
L 398.487273 295.488 
" style="fill:none;stroke:#0000ff;stroke-dasharray:2,3.3;stroke-dashoffset:0;stroke-width:2;"/>
   </g>
   <g id="line2d_16">
    <path clip-path="url(#pf3ead9d733)" d="M 236.16 53.568 
L 73.832727 53.568 
L 237.060663 54.080325 
L 237.026207 54.18279 
L 236.991737 54.285255 
L 237.096303 54.285255 
L 237.131604 54.38772 
L 237.097104 54.490186 
L 237.201895 54.490186 
L 237.272307 54.592651 
L 237.237778 54.695116 
L 237.342839 54.695116 
L 237.518825 54.797581 
L 237.484267 54.900046 
L 237.589735 54.900046 
L 238.190842 55.002511 
L 238.156258 55.104976 
L 238.262685 55.104976 
L 238.65518 55.207441 
L 238.620569 55.309906 
L 238.72769 55.309906 
L 238.979406 55.412371 
L 238.981856 55.617301 
L 239.01775 55.617301 
L 239.849256 55.719766 
L 239.814581 55.822231 
L 239.923493 55.822231 
L 240.58192 55.924696 
L 240.547224 56.027161 
L 240.657194 56.027161 
L 241.026955 56.129626 
L 240.992234 56.232091 
L 241.102887 56.232091 
L 241.586482 56.334557 
L 241.593699 56.641952 
L 241.856959 56.744417 
L 241.787345 56.949347 
L 241.89939 56.949347 
L 242.089103 57.051812 
L 242.05952 57.359207 
L 242.097037 57.359207 
L 243.195518 57.461672 
L 243.160637 57.564137 
L 243.274816 57.564137 
L 243.354257 57.666602 
L 243.319349 57.769067 
L 243.433841 57.769067 
L 244.591151 57.871532 
L 244.56005 58.076463 
L 244.637582 58.076463 
L 244.991372 58.178928 
L 244.956423 58.281393 
L 245.073391 58.281393 
L 245.233735 58.383858 
L 245.198762 58.486323 
L 245.316163 58.486323 
L 246.22623 58.588788 
L 246.235486 58.793718 
L 246.319461 58.896183 
L 246.28444 58.998648 
L 246.363856 58.998648 
L 247.001826 58.998648 
L 246.966809 59.101113 
L 246.941747 59.408508 
L 248.401819 59.510973 
L 248.296619 59.818368 
L 248.378182 59.818368 
L 248.834087 59.920834 
L 248.79899 60.023299 
L 248.881096 60.023299 
L 249.051593 60.125764 
L 249.016473 60.228229 
L 249.098854 60.228229 
L 249.891844 60.330694 
L 249.856723 60.433159 
L 249.939969 60.433159 
L 250.783731 60.535624 
L 250.748614 60.638089 
L 250.832779 60.638089 
L 251.771379 60.740554 
L 251.666005 61.047949 
L 251.751194 61.047949 
L 252.658581 61.150414 
L 252.62345 61.252879 
L 252.709635 61.252879 
L 253.193374 61.355344 
L 253.123082 61.560274 
L 253.209864 61.560274 
L 253.296729 61.560274 
L 253.261565 61.66274 
L 253.226385 61.765205 
L 253.313342 61.765205 
L 253.495922 61.86767 
L 253.425504 62.0726 
L 253.51277 62.0726 
L 253.871305 62.175065 
L 253.853316 62.48246 
L 254.117083 62.48246 
L 254.081819 62.584925 
L 254.046538 62.68739 
L 254.134641 62.68739 
L 254.452637 62.789855 
L 254.435256 63.09725 
L 254.710548 63.199715 
L 254.675205 63.30218 
L 254.764159 63.30218 
L 255.299723 63.30218 
L 255.264394 63.404645 
L 255.229048 63.507111 
L 255.318626 63.507111 
L 255.597506 63.609576 
L 255.616761 63.814506 
L 256.077951 63.916971 
L 255.920527 64.634226 
L 256.704672 64.736691 
L 256.679468 64.941621 
L 256.725248 64.941621 
L 256.771051 64.941621 
L 256.735551 65.044086 
L 256.756189 65.249017 
L 257.031814 65.249017 
L 256.996281 65.351482 
L 256.925163 65.556412 
L 257.017238 65.556412 
L 257.073831 65.658877 
L 257.002626 65.863807 
L 257.094903 65.863807 
L 257.141076 65.863807 
L 257.105455 65.966272 
L 257.034158 66.171202 
L 257.12659 66.171202 
L 257.322424 66.273667 
L 257.251056 66.478597 
L 257.343832 66.478597 
L 257.540492 66.581062 
L 257.433308 66.888457 
L 257.526435 66.888457 
L 258.239155 66.990922 
L 258.046823 67.810643 
L 258.388075 67.913108 
L 258.352208 68.015573 
L 258.446736 68.015573 
L 258.494037 68.015573 
L 258.458159 68.118038 
L 258.445114 68.425433 
L 259.027118 68.527898 
L 259.014742 68.835294 
L 259.122144 68.937759 
L 258.989896 69.450084 
L 259.037777 69.450084 
L 259.289534 69.552549 
L 259.253463 69.655014 
L 259.34961 69.655014 
L 259.590416 69.655014 
L 259.554349 69.757479 
L 259.518262 69.859944 
L 259.614772 69.859944 
L 259.772008 69.962409 
L 259.699779 70.167339 
L 259.79661 70.167339 
L 259.905919 70.269804 
L 259.930713 70.474734 
L 260.186474 70.577199 
L 260.150298 70.679665 
L 260.247821 70.679665 
L 260.345446 70.679665 
L 260.309264 70.78213 
L 260.273064 70.884595 
L 260.370804 70.884595 
L 260.775726 70.98706 
L 260.667063 71.294455 
L 260.765397 71.294455 
L 261.222406 71.39692 
L 261.248892 71.60185 
L 262.308412 71.704315 
L 262.272204 71.80678 
L 262.372465 71.80678 
L 262.587382 71.909245 
L 262.565236 72.114175 
L 262.615578 72.114175 
L 263.439335 72.21664 
L 263.403129 72.319105 
L 263.50483 72.319105 
L 264.029968 72.421571 
L 263.993775 72.524036 
L 264.096204 72.524036 
L 264.198745 72.524036 
L 264.162548 72.626501 
L 264.141421 72.831431 
L 264.192772 72.831431 
L 264.9302 72.933896 
L 264.893995 73.036361 
L 264.997636 73.036361 
L 265.273043 73.138826 
L 265.304723 73.343756 
L 265.408953 73.343756 
L 265.372722 73.446221 
L 265.336471 73.548686 
L 265.440832 73.548686 
L 265.718365 73.651151 
L 265.682109 73.753616 
L 265.786945 73.753616 
L 265.960711 73.856081 
L 265.993361 74.061011 
L 266.749871 74.163476 
L 266.71362 74.265942 
L 266.819832 74.265942 
L 266.872982 74.265942 
L 266.836724 74.368407 
L 266.78103 74.675802 
L 266.834257 74.675802 
L 267.385423 74.778267 
L 267.349127 74.880732 
L 267.456338 74.880732 
L 267.850106 74.983197 
L 267.813818 75.085662 
L 267.921645 75.085662 
L 268.426336 75.188127 
L 268.390066 75.290592 
L 268.498636 75.290592 
L 268.897892 75.393057 
L 268.879943 75.597987 
L 268.934563 75.597987 
L 269.501173 75.700452 
L 269.464921 75.802917 
L 269.57495 75.802917 
L 270.09075 75.905382 
L 270.018271 76.110313 
L 270.129079 76.110313 
L 270.481674 76.212778 
L 270.464857 76.417708 
L 270.520576 76.417708 
L 271.605465 76.520173 
L 271.569285 76.622638 
L 271.682116 76.622638 
L 272.496371 76.725103 
L 272.46025 76.827568 
L 272.574207 76.827568 
L 272.995266 76.930033 
L 272.886896 77.237428 
L 273.001558 77.237428 
L 273.576858 77.237428 
L 273.540768 77.339893 
L 273.504656 77.442358 
L 273.62014 77.442358 
L 274.141476 77.442358 
L 274.105412 77.544823 
L 274.069328 77.647288 
L 274.185576 77.647288 
L 274.53513 77.647288 
L 274.499077 77.749753 
L 274.463002 77.852219 
L 274.579817 77.852219 
L 275.542297 77.954684 
L 275.470294 78.159614 
L 275.529356 78.159614 
L 276.02651 78.262079 
L 276.013947 78.467009 
L 276.634047 78.569474 
L 276.598081 78.671939 
L 276.657947 78.671939 
L 276.921862 78.774404 
L 276.885896 78.876869 
L 276.945988 78.876869 
L 277.030315 78.979334 
L 276.994327 79.081799 
L 277.054541 79.081799 
L 277.320181 79.184264 
L 277.308637 79.389194 
L 277.672095 79.389194 
L 277.636117 79.491659 
L 277.564096 79.69659 
L 277.62482 79.69659 
L 278.137008 79.799055 
L 278.101018 79.90152 
L 278.162121 79.90152 
L 278.985524 80.003985 
L 278.949606 80.10645 
L 279.011276 80.10645 
L 279.594175 80.208915 
L 279.558299 80.31138 
L 279.620396 80.31138 
L 279.68253 80.31138 
L 279.646648 80.413845 
L 279.610744 80.51631 
L 279.672932 80.51631 
L 280.010977 80.618775 
L 279.965722 80.92617 
L 280.054871 81.028635 
L 280.018917 81.1311 
L 280.081531 81.1311 
L 281.115981 81.233565 
L 281.080131 81.33603 
L 281.143451 81.33603 
L 281.20681 81.33603 
L 281.170956 81.438496 
L 281.135079 81.540961 
L 281.198494 81.540961 
L 281.671389 81.643426 
L 281.599679 81.848356 
L 281.663469 81.848356 
L 282.111105 81.848356 
L 282.075286 81.950821 
L 282.039445 82.053286 
L 282.103567 82.053286 
L 282.969721 82.155751 
L 282.898193 82.360681 
L 282.962939 82.360681 
L 283.511758 82.463146 
L 283.505455 82.668076 
L 284.058191 82.770541 
L 284.022488 82.873006 
L 284.08809 82.873006 
L 284.350909 82.873006 
L 284.31523 82.975471 
L 284.279529 83.077936 
L 284.345356 83.077936 
L 284.970272 83.180402 
L 284.934631 83.282867 
L 285.000932 83.282867 
L 285.563953 83.385332 
L 285.528364 83.487797 
L 285.595103 83.487797 
L 285.960879 83.590262 
L 285.925314 83.692727 
L 285.992369 83.692727 
L 287.035617 83.795192 
L 287.000179 83.897657 
L 287.067981 83.897657 
L 287.816652 83.897657 
L 287.781317 84.000122 
L 287.778931 84.205052 
L 288.981608 84.307517 
L 288.946386 84.409982 
L 289.015598 84.409982 
L 289.396645 84.512447 
L 289.361455 84.614912 
L 289.431002 84.614912 
L 290.163923 84.717377 
L 289.988187 85.229703 
L 290.058345 85.229703 
L 290.233921 85.332168 
L 290.233887 85.537098 
L 290.304307 85.537098 
L 290.269091 85.639563 
L 290.198522 86.049423 
L 290.445803 86.151888 
L 290.375291 86.561748 
L 291.479426 86.664213 
L 291.587521 86.766679 
L 292.199643 86.869144 
L 292.164518 86.971609 
L 292.236694 86.971609 
L 292.418409 87.074074 
L 292.383287 87.176539 
L 292.455679 87.176539 
L 292.673142 87.176539 
L 292.638046 87.279004 
L 292.567784 87.483934 
L 292.640406 87.483934 
L 293.188063 87.586399 
L 293.152986 87.688864 
L 293.226069 87.688864 
L 293.630578 87.791329 
L 293.595544 87.893794 
L 293.668994 87.893794 
L 294.002002 87.996259 
L 293.966999 88.098724 
L 294.04077 88.098724 
L 294.523636 88.201189 
L 294.488691 88.303654 
L 294.562886 88.303654 
L 294.974229 88.406119 
L 294.939329 88.508584 
L 295.013902 88.508584 
L 296.213935 88.508584 
L 296.179243 88.61105 
L 296.144527 88.713515 
L 296.219989 88.713515 
L 296.715034 88.81598 
L 296.680383 88.918445 
L 296.756284 88.918445 
L 297.178207 89.02091 
L 297.150657 89.328305 
L 298.731208 89.43077 
L 298.662435 89.6357 
L 298.739962 89.6357 
L 299.483931 89.738165 
L 299.415345 89.943095 
L 299.49351 89.943095 
L 300.55943 90.04556 
L 300.525309 90.148025 
L 300.604323 90.148025 
L 302.00222 90.25049 
L 301.968354 90.352956 
L 302.048458 90.352956 
L 302.128618 90.352956 
L 302.09476 90.455421 
L 302.026974 90.660351 
L 302.107239 90.660351 
L 303.446809 90.762816 
L 303.427133 91.070211 
L 304.210366 91.172676 
L 304.143217 91.377606 
L 304.225265 91.377606 
L 304.35598 91.480071 
L 305.313396 91.582536 
L 305.329584 91.787466 
L 305.428966 91.992396 
L 305.762198 91.992396 
L 305.762282 92.504722 
L 305.946653 92.709652 
L 306.839509 92.812117 
L 307.304166 93.734302 
L 307.902592 93.734302 
L 309.649655 94.758953 
L 310.670879 94.861418 
L 313.38843 95.886069 
L 398.487273 295.488 
L 398.487273 295.488 
" style="fill:none;stroke:#008000;stroke-dasharray:2,3.3;stroke-dashoffset:0;stroke-width:2;"/>
   </g>
   <g id="line2d_17">
    <path clip-path="url(#pf3ead9d733)" d="M 236.16 53.568 
L 73.832727 53.568 
L 334.944937 118.223451 
L 398.487273 295.488 
" style="fill:none;stroke:#800080;stroke-dasharray:2,3.3;stroke-dashoffset:0;stroke-width:2;"/>
   </g>
   <g id="line2d_18">
    <path clip-path="url(#pf3ead9d733)" d="M 73.832727 53.568 
L 398.487273 295.488 
" style="fill:none;stroke:#000080;stroke-dasharray:7.4,3.2;stroke-dashoffset:0;stroke-width:2;"/>
   </g>
   <g id="patch_3">
    <path d="M 57.6 307.584 
L 57.6 41.472 
" style="fill:none;stroke:#000000;stroke-linecap:square;stroke-linejoin:miter;stroke-width:0.8;"/>
   </g>
   <g id="patch_4">
    <path d="M 414.72 307.584 
L 414.72 41.472 
" style="fill:none;stroke:#000000;stroke-linecap:square;stroke-linejoin:miter;stroke-width:0.8;"/>
   </g>
   <g id="patch_5">
    <path d="M 57.6 307.584 
L 414.72 307.584 
" style="fill:none;stroke:#000000;stroke-linecap:square;stroke-linejoin:miter;stroke-width:0.8;"/>
   </g>
   <g id="patch_6">
    <path d="M 57.6 41.472 
L 414.72 41.472 
" style="fill:none;stroke:#000000;stroke-linecap:square;stroke-linejoin:miter;stroke-width:0.8;"/>
   </g>
   <g id="legend_1">
    <g id="patch_7">
     <path d="M 64.6 302.584 
L 254.142187 302.584 
Q 256.142187 302.584 256.142187 300.584 
L 256.142187 228.193375 
Q 256.142187 226.193375 254.142187 226.193375 
L 64.6 226.193375 
Q 62.6 226.193375 62.6 228.193375 
L 62.6 300.584 
Q 62.6 302.584 64.6 302.584 
z
" style="fill:#ffffff;opacity:0.8;stroke:#cccccc;stroke-linejoin:miter;"/>
    </g>
    <g id="line2d_19">
     <path d="M 66.6 234.291812 
L 86.6 234.291812 
" style="fill:none;stroke:#000000;stroke-linecap:square;stroke-width:2;"/>
    </g>
    <g id="line2d_20"/>
    <g id="text_15">
     <!-- RandomForest(AUPR = 0.9141) -->
     <defs>
      <path d="M 45.40625 46.390625 
L 45.40625 75.984375 
L 54.390625 75.984375 
L 54.390625 0 
L 45.40625 0 
L 45.40625 8.203125 
Q 42.578125 3.328125 38.25 0.953125 
Q 33.9375 -1.421875 27.875 -1.421875 
Q 17.96875 -1.421875 11.734375 6.484375 
Q 5.515625 14.40625 5.515625 27.296875 
Q 5.515625 40.1875 11.734375 48.09375 
Q 17.96875 56 27.875 56 
Q 33.9375 56 38.25 53.625 
Q 42.578125 51.265625 45.40625 46.390625 
z
M 14.796875 27.296875 
Q 14.796875 17.390625 18.875 11.75 
Q 22.953125 6.109375 30.078125 6.109375 
Q 37.203125 6.109375 41.296875 11.75 
Q 45.40625 17.390625 45.40625 27.296875 
Q 45.40625 37.203125 41.296875 42.84375 
Q 37.203125 48.484375 30.078125 48.484375 
Q 22.953125 48.484375 18.875 42.84375 
Q 14.796875 37.203125 14.796875 27.296875 
z
" id="DejaVuSans-64"/>
      <path d="M 52 44.1875 
Q 55.375 50.25 60.0625 53.125 
Q 64.75 56 71.09375 56 
Q 79.640625 56 84.28125 50.015625 
Q 88.921875 44.046875 88.921875 33.015625 
L 88.921875 0 
L 79.890625 0 
L 79.890625 32.71875 
Q 79.890625 40.578125 77.09375 44.375 
Q 74.3125 48.1875 68.609375 48.1875 
Q 61.625 48.1875 57.5625 43.546875 
Q 53.515625 38.921875 53.515625 30.90625 
L 53.515625 0 
L 44.484375 0 
L 44.484375 32.71875 
Q 44.484375 40.625 41.703125 44.40625 
Q 38.921875 48.1875 33.109375 48.1875 
Q 26.21875 48.1875 22.15625 43.53125 
Q 18.109375 38.875 18.109375 30.90625 
L 18.109375 0 
L 9.078125 0 
L 9.078125 54.6875 
L 18.109375 54.6875 
L 18.109375 46.1875 
Q 21.1875 51.21875 25.484375 53.609375 
Q 29.78125 56 35.6875 56 
Q 41.65625 56 45.828125 52.96875 
Q 50 49.953125 52 44.1875 
z
" id="DejaVuSans-6d"/>
      <path d="M 9.8125 72.90625 
L 51.703125 72.90625 
L 51.703125 64.59375 
L 19.671875 64.59375 
L 19.671875 43.109375 
L 48.578125 43.109375 
L 48.578125 34.8125 
L 19.671875 34.8125 
L 19.671875 0 
L 9.8125 0 
z
" id="DejaVuSans-46"/>
      <path d="M 18.3125 70.21875 
L 18.3125 54.6875 
L 36.8125 54.6875 
L 36.8125 47.703125 
L 18.3125 47.703125 
L 18.3125 18.015625 
Q 18.3125 11.328125 20.140625 9.421875 
Q 21.96875 7.515625 27.59375 7.515625 
L 36.8125 7.515625 
L 36.8125 0 
L 27.59375 0 
Q 17.1875 0 13.234375 3.875 
Q 9.28125 7.765625 9.28125 18.015625 
L 9.28125 47.703125 
L 2.6875 47.703125 
L 2.6875 54.6875 
L 9.28125 54.6875 
L 9.28125 70.21875 
z
" id="DejaVuSans-74"/>
      <path d="M 31 75.875 
Q 24.46875 64.65625 21.28125 53.65625 
Q 18.109375 42.671875 18.109375 31.390625 
Q 18.109375 20.125 21.3125 9.0625 
Q 24.515625 -2 31 -13.1875 
L 23.1875 -13.1875 
Q 15.875 -1.703125 12.234375 9.375 
Q 8.59375 20.453125 8.59375 31.390625 
Q 8.59375 42.28125 12.203125 53.3125 
Q 15.828125 64.359375 23.1875 75.875 
z
" id="DejaVuSans-28"/>
      <path d="M 34.1875 63.1875 
L 20.796875 26.90625 
L 47.609375 26.90625 
z
M 28.609375 72.90625 
L 39.796875 72.90625 
L 67.578125 0 
L 57.328125 0 
L 50.6875 18.703125 
L 17.828125 18.703125 
L 11.1875 0 
L 0.78125 0 
z
" id="DejaVuSans-41"/>
      <path d="M 8.6875 72.90625 
L 18.609375 72.90625 
L 18.609375 28.609375 
Q 18.609375 16.890625 22.84375 11.734375 
Q 27.09375 6.59375 36.625 6.59375 
Q 46.09375 6.59375 50.34375 11.734375 
Q 54.59375 16.890625 54.59375 28.609375 
L 54.59375 72.90625 
L 64.5 72.90625 
L 64.5 27.390625 
Q 64.5 13.140625 57.4375 5.859375 
Q 50.390625 -1.421875 36.625 -1.421875 
Q 22.796875 -1.421875 15.734375 5.859375 
Q 8.6875 13.140625 8.6875 27.390625 
z
" id="DejaVuSans-55"/>
      <path id="DejaVuSans-20"/>
      <path d="M 10.59375 45.40625 
L 73.1875 45.40625 
L 73.1875 37.203125 
L 10.59375 37.203125 
z
M 10.59375 25.484375 
L 73.1875 25.484375 
L 73.1875 17.1875 
L 10.59375 17.1875 
z
" id="DejaVuSans-3d"/>
      <path d="M 10.984375 1.515625 
L 10.984375 10.5 
Q 14.703125 8.734375 18.5 7.8125 
Q 22.3125 6.890625 25.984375 6.890625 
Q 35.75 6.890625 40.890625 13.453125 
Q 46.046875 20.015625 46.78125 33.40625 
Q 43.953125 29.203125 39.59375 26.953125 
Q 35.25 24.703125 29.984375 24.703125 
Q 19.046875 24.703125 12.671875 31.3125 
Q 6.296875 37.9375 6.296875 49.421875 
Q 6.296875 60.640625 12.9375 67.421875 
Q 19.578125 74.21875 30.609375 74.21875 
Q 43.265625 74.21875 49.921875 64.515625 
Q 56.59375 54.828125 56.59375 36.375 
Q 56.59375 19.140625 48.40625 8.859375 
Q 40.234375 -1.421875 26.421875 -1.421875 
Q 22.703125 -1.421875 18.890625 -0.6875 
Q 15.09375 0.046875 10.984375 1.515625 
z
M 30.609375 32.421875 
Q 37.25 32.421875 41.125 36.953125 
Q 45.015625 41.5 45.015625 49.421875 
Q 45.015625 57.28125 41.125 61.84375 
Q 37.25 66.40625 30.609375 66.40625 
Q 23.96875 66.40625 20.09375 61.84375 
Q 16.21875 57.28125 16.21875 49.421875 
Q 16.21875 41.5 20.09375 36.953125 
Q 23.96875 32.421875 30.609375 32.421875 
z
" id="DejaVuSans-39"/>
      <path d="M 8.015625 75.875 
L 15.828125 75.875 
Q 23.140625 64.359375 26.78125 53.3125 
Q 30.421875 42.28125 30.421875 31.390625 
Q 30.421875 20.453125 26.78125 9.375 
Q 23.140625 -1.703125 15.828125 -13.1875 
L 8.015625 -13.1875 
Q 14.5 -2 17.703125 9.0625 
Q 20.90625 20.125 20.90625 31.390625 
Q 20.90625 42.671875 17.703125 53.65625 
Q 14.5 64.65625 8.015625 75.875 
z
" id="DejaVuSans-29"/>
     </defs>
     <g transform="translate(94.6 237.791812)scale(0.1 -0.1)">
      <use xlink:href="#DejaVuSans-52"/>
      <use x="69.451172" xlink:href="#DejaVuSans-61"/>
      <use x="130.730469" xlink:href="#DejaVuSans-6e"/>
      <use x="194.109375" xlink:href="#DejaVuSans-64"/>
      <use x="257.585938" xlink:href="#DejaVuSans-6f"/>
      <use x="318.767578" xlink:href="#DejaVuSans-6d"/>
      <use x="416.179688" xlink:href="#DejaVuSans-46"/>
      <use x="473.652344" xlink:href="#DejaVuSans-6f"/>
      <use x="534.833984" xlink:href="#DejaVuSans-72"/>
      <use x="575.916016" xlink:href="#DejaVuSans-65"/>
      <use x="637.439453" xlink:href="#DejaVuSans-73"/>
      <use x="689.539062" xlink:href="#DejaVuSans-74"/>
      <use x="728.748047" xlink:href="#DejaVuSans-28"/>
      <use x="767.761719" xlink:href="#DejaVuSans-41"/>
      <use x="836.169922" xlink:href="#DejaVuSans-55"/>
      <use x="909.363281" xlink:href="#DejaVuSans-50"/>
      <use x="969.666016" xlink:href="#DejaVuSans-52"/>
      <use x="1039.148438" xlink:href="#DejaVuSans-20"/>
      <use x="1070.935547" xlink:href="#DejaVuSans-3d"/>
      <use x="1154.724609" xlink:href="#DejaVuSans-20"/>
      <use x="1186.511719" xlink:href="#DejaVuSans-30"/>
      <use x="1250.134766" xlink:href="#DejaVuSans-2e"/>
      <use x="1281.921875" xlink:href="#DejaVuSans-39"/>
      <use x="1345.544922" xlink:href="#DejaVuSans-31"/>
      <use x="1409.167969" xlink:href="#DejaVuSans-34"/>
      <use x="1472.791016" xlink:href="#DejaVuSans-31"/>
      <use x="1536.414062" xlink:href="#DejaVuSans-29"/>
     </g>
    </g>
    <g id="line2d_21">
     <path d="M 66.6 248.969937 
L 86.6 248.969937 
" style="fill:none;stroke:#ff0000;stroke-dasharray:2,3.3;stroke-dashoffset:0;stroke-width:2;"/>
    </g>
    <g id="line2d_22"/>
    <g id="text_16">
     <!-- Bagging(AUPR = 0.9014) -->
     <defs>
      <path d="M 19.671875 34.8125 
L 19.671875 8.109375 
L 35.5 8.109375 
Q 43.453125 8.109375 47.28125 11.40625 
Q 51.125 14.703125 51.125 21.484375 
Q 51.125 28.328125 47.28125 31.5625 
Q 43.453125 34.8125 35.5 34.8125 
z
M 19.671875 64.796875 
L 19.671875 42.828125 
L 34.28125 42.828125 
Q 41.5 42.828125 45.03125 45.53125 
Q 48.578125 48.25 48.578125 53.8125 
Q 48.578125 59.328125 45.03125 62.0625 
Q 41.5 64.796875 34.28125 64.796875 
z
M 9.8125 72.90625 
L 35.015625 72.90625 
Q 46.296875 72.90625 52.390625 68.21875 
Q 58.5 63.53125 58.5 54.890625 
Q 58.5 48.1875 55.375 44.234375 
Q 52.25 40.28125 46.1875 39.3125 
Q 53.46875 37.75 57.5 32.78125 
Q 61.53125 27.828125 61.53125 20.40625 
Q 61.53125 10.640625 54.890625 5.3125 
Q 48.25 0 35.984375 0 
L 9.8125 0 
z
" id="DejaVuSans-42"/>
      <path d="M 45.40625 27.984375 
Q 45.40625 37.75 41.375 43.109375 
Q 37.359375 48.484375 30.078125 48.484375 
Q 22.859375 48.484375 18.828125 43.109375 
Q 14.796875 37.75 14.796875 27.984375 
Q 14.796875 18.265625 18.828125 12.890625 
Q 22.859375 7.515625 30.078125 7.515625 
Q 37.359375 7.515625 41.375 12.890625 
Q 45.40625 18.265625 45.40625 27.984375 
z
M 54.390625 6.78125 
Q 54.390625 -7.171875 48.1875 -13.984375 
Q 42 -20.796875 29.203125 -20.796875 
Q 24.46875 -20.796875 20.265625 -20.09375 
Q 16.0625 -19.390625 12.109375 -17.921875 
L 12.109375 -9.1875 
Q 16.0625 -11.328125 19.921875 -12.34375 
Q 23.78125 -13.375 27.78125 -13.375 
Q 36.625 -13.375 41.015625 -8.765625 
Q 45.40625 -4.15625 45.40625 5.171875 
L 45.40625 9.625 
Q 42.625 4.78125 38.28125 2.390625 
Q 33.9375 0 27.875 0 
Q 17.828125 0 11.671875 7.65625 
Q 5.515625 15.328125 5.515625 27.984375 
Q 5.515625 40.671875 11.671875 48.328125 
Q 17.828125 56 27.875 56 
Q 33.9375 56 38.28125 53.609375 
Q 42.625 51.21875 45.40625 46.390625 
L 45.40625 54.6875 
L 54.390625 54.6875 
z
" id="DejaVuSans-67"/>
     </defs>
     <g transform="translate(94.6 252.469937)scale(0.1 -0.1)">
      <use xlink:href="#DejaVuSans-42"/>
      <use x="68.603516" xlink:href="#DejaVuSans-61"/>
      <use x="129.882812" xlink:href="#DejaVuSans-67"/>
      <use x="193.359375" xlink:href="#DejaVuSans-67"/>
      <use x="256.835938" xlink:href="#DejaVuSans-69"/>
      <use x="284.619141" xlink:href="#DejaVuSans-6e"/>
      <use x="347.998047" xlink:href="#DejaVuSans-67"/>
      <use x="411.474609" xlink:href="#DejaVuSans-28"/>
      <use x="450.488281" xlink:href="#DejaVuSans-41"/>
      <use x="518.896484" xlink:href="#DejaVuSans-55"/>
      <use x="592.089844" xlink:href="#DejaVuSans-50"/>
      <use x="652.392578" xlink:href="#DejaVuSans-52"/>
      <use x="721.875" xlink:href="#DejaVuSans-20"/>
      <use x="753.662109" xlink:href="#DejaVuSans-3d"/>
      <use x="837.451172" xlink:href="#DejaVuSans-20"/>
      <use x="869.238281" xlink:href="#DejaVuSans-30"/>
      <use x="932.861328" xlink:href="#DejaVuSans-2e"/>
      <use x="964.648438" xlink:href="#DejaVuSans-39"/>
      <use x="1028.271484" xlink:href="#DejaVuSans-30"/>
      <use x="1091.894531" xlink:href="#DejaVuSans-31"/>
      <use x="1155.517578" xlink:href="#DejaVuSans-34"/>
      <use x="1219.140625" xlink:href="#DejaVuSans-29"/>
     </g>
    </g>
    <g id="line2d_23">
     <path d="M 66.6 263.648062 
L 86.6 263.648062 
" style="fill:none;stroke:#0000ff;stroke-dasharray:2,3.3;stroke-dashoffset:0;stroke-width:2;"/>
    </g>
    <g id="line2d_24"/>
    <g id="text_17">
     <!-- AdaBoost(AUPR = 0.8871) -->
     <defs>
      <path d="M 8.203125 72.90625 
L 55.078125 72.90625 
L 55.078125 68.703125 
L 28.609375 0 
L 18.3125 0 
L 43.21875 64.59375 
L 8.203125 64.59375 
z
" id="DejaVuSans-37"/>
     </defs>
     <g transform="translate(94.6 267.148062)scale(0.1 -0.1)">
      <use xlink:href="#DejaVuSans-41"/>
      <use x="68.392578" xlink:href="#DejaVuSans-64"/>
      <use x="131.869141" xlink:href="#DejaVuSans-61"/>
      <use x="193.148438" xlink:href="#DejaVuSans-42"/>
      <use x="261.751953" xlink:href="#DejaVuSans-6f"/>
      <use x="322.933594" xlink:href="#DejaVuSans-6f"/>
      <use x="384.115234" xlink:href="#DejaVuSans-73"/>
      <use x="436.214844" xlink:href="#DejaVuSans-74"/>
      <use x="475.423828" xlink:href="#DejaVuSans-28"/>
      <use x="514.4375" xlink:href="#DejaVuSans-41"/>
      <use x="582.845703" xlink:href="#DejaVuSans-55"/>
      <use x="656.039062" xlink:href="#DejaVuSans-50"/>
      <use x="716.341797" xlink:href="#DejaVuSans-52"/>
      <use x="785.824219" xlink:href="#DejaVuSans-20"/>
      <use x="817.611328" xlink:href="#DejaVuSans-3d"/>
      <use x="901.400391" xlink:href="#DejaVuSans-20"/>
      <use x="933.1875" xlink:href="#DejaVuSans-30"/>
      <use x="996.810547" xlink:href="#DejaVuSans-2e"/>
      <use x="1028.597656" xlink:href="#DejaVuSans-38"/>
      <use x="1092.220703" xlink:href="#DejaVuSans-38"/>
      <use x="1155.84375" xlink:href="#DejaVuSans-37"/>
      <use x="1219.466797" xlink:href="#DejaVuSans-31"/>
      <use x="1283.089844" xlink:href="#DejaVuSans-29"/>
     </g>
    </g>
    <g id="line2d_25">
     <path d="M 66.6 278.326188 
L 86.6 278.326188 
" style="fill:none;stroke:#008000;stroke-dasharray:2,3.3;stroke-dashoffset:0;stroke-width:2;"/>
    </g>
    <g id="line2d_26"/>
    <g id="text_18">
     <!-- Naive Bayes(AUPR = 0.8235) -->
     <defs>
      <path d="M 9.8125 72.90625 
L 23.09375 72.90625 
L 55.421875 11.921875 
L 55.421875 72.90625 
L 64.984375 72.90625 
L 64.984375 0 
L 51.703125 0 
L 19.390625 60.984375 
L 19.390625 0 
L 9.8125 0 
z
" id="DejaVuSans-4e"/>
      <path d="M 2.984375 54.6875 
L 12.5 54.6875 
L 29.59375 8.796875 
L 46.6875 54.6875 
L 56.203125 54.6875 
L 35.6875 0 
L 23.484375 0 
z
" id="DejaVuSans-76"/>
      <path d="M 32.171875 -5.078125 
Q 28.375 -14.84375 24.75 -17.8125 
Q 21.140625 -20.796875 15.09375 -20.796875 
L 7.90625 -20.796875 
L 7.90625 -13.28125 
L 13.1875 -13.28125 
Q 16.890625 -13.28125 18.9375 -11.515625 
Q 21 -9.765625 23.484375 -3.21875 
L 25.09375 0.875 
L 2.984375 54.6875 
L 12.5 54.6875 
L 29.59375 11.921875 
L 46.6875 54.6875 
L 56.203125 54.6875 
z
" id="DejaVuSans-79"/>
      <path d="M 40.578125 39.3125 
Q 47.65625 37.796875 51.625 33 
Q 55.609375 28.21875 55.609375 21.1875 
Q 55.609375 10.40625 48.1875 4.484375 
Q 40.765625 -1.421875 27.09375 -1.421875 
Q 22.515625 -1.421875 17.65625 -0.515625 
Q 12.796875 0.390625 7.625 2.203125 
L 7.625 11.71875 
Q 11.71875 9.328125 16.59375 8.109375 
Q 21.484375 6.890625 26.8125 6.890625 
Q 36.078125 6.890625 40.9375 10.546875 
Q 45.796875 14.203125 45.796875 21.1875 
Q 45.796875 27.640625 41.28125 31.265625 
Q 36.765625 34.90625 28.71875 34.90625 
L 20.21875 34.90625 
L 20.21875 43.015625 
L 29.109375 43.015625 
Q 36.375 43.015625 40.234375 45.921875 
Q 44.09375 48.828125 44.09375 54.296875 
Q 44.09375 59.90625 40.109375 62.90625 
Q 36.140625 65.921875 28.71875 65.921875 
Q 24.65625 65.921875 20.015625 65.03125 
Q 15.375 64.15625 9.8125 62.3125 
L 9.8125 71.09375 
Q 15.4375 72.65625 20.34375 73.4375 
Q 25.25 74.21875 29.59375 74.21875 
Q 40.828125 74.21875 47.359375 69.109375 
Q 53.90625 64.015625 53.90625 55.328125 
Q 53.90625 49.265625 50.4375 45.09375 
Q 46.96875 40.921875 40.578125 39.3125 
z
" id="DejaVuSans-33"/>
      <path d="M 10.796875 72.90625 
L 49.515625 72.90625 
L 49.515625 64.59375 
L 19.828125 64.59375 
L 19.828125 46.734375 
Q 21.96875 47.46875 24.109375 47.828125 
Q 26.265625 48.1875 28.421875 48.1875 
Q 40.625 48.1875 47.75 41.5 
Q 54.890625 34.8125 54.890625 23.390625 
Q 54.890625 11.625 47.5625 5.09375 
Q 40.234375 -1.421875 26.90625 -1.421875 
Q 22.3125 -1.421875 17.546875 -0.640625 
Q 12.796875 0.140625 7.71875 1.703125 
L 7.71875 11.625 
Q 12.109375 9.234375 16.796875 8.0625 
Q 21.484375 6.890625 26.703125 6.890625 
Q 35.15625 6.890625 40.078125 11.328125 
Q 45.015625 15.765625 45.015625 23.390625 
Q 45.015625 31 40.078125 35.4375 
Q 35.15625 39.890625 26.703125 39.890625 
Q 22.75 39.890625 18.8125 39.015625 
Q 14.890625 38.140625 10.796875 36.28125 
z
" id="DejaVuSans-35"/>
     </defs>
     <g transform="translate(94.6 281.826188)scale(0.1 -0.1)">
      <use xlink:href="#DejaVuSans-4e"/>
      <use x="74.804688" xlink:href="#DejaVuSans-61"/>
      <use x="136.083984" xlink:href="#DejaVuSans-69"/>
      <use x="163.867188" xlink:href="#DejaVuSans-76"/>
      <use x="223.046875" xlink:href="#DejaVuSans-65"/>
      <use x="284.570312" xlink:href="#DejaVuSans-20"/>
      <use x="316.357422" xlink:href="#DejaVuSans-42"/>
      <use x="384.960938" xlink:href="#DejaVuSans-61"/>
      <use x="446.240234" xlink:href="#DejaVuSans-79"/>
      <use x="505.419922" xlink:href="#DejaVuSans-65"/>
      <use x="566.943359" xlink:href="#DejaVuSans-73"/>
      <use x="619.042969" xlink:href="#DejaVuSans-28"/>
      <use x="658.056641" xlink:href="#DejaVuSans-41"/>
      <use x="726.464844" xlink:href="#DejaVuSans-55"/>
      <use x="799.658203" xlink:href="#DejaVuSans-50"/>
      <use x="859.960938" xlink:href="#DejaVuSans-52"/>
      <use x="929.443359" xlink:href="#DejaVuSans-20"/>
      <use x="961.230469" xlink:href="#DejaVuSans-3d"/>
      <use x="1045.019531" xlink:href="#DejaVuSans-20"/>
      <use x="1076.806641" xlink:href="#DejaVuSans-30"/>
      <use x="1140.429688" xlink:href="#DejaVuSans-2e"/>
      <use x="1172.216797" xlink:href="#DejaVuSans-38"/>
      <use x="1235.839844" xlink:href="#DejaVuSans-32"/>
      <use x="1299.462891" xlink:href="#DejaVuSans-33"/>
      <use x="1363.085938" xlink:href="#DejaVuSans-35"/>
      <use x="1426.708984" xlink:href="#DejaVuSans-29"/>
     </g>
    </g>
    <g id="line2d_27">
     <path d="M 66.6 293.004312 
L 86.6 293.004312 
" style="fill:none;stroke:#800080;stroke-dasharray:2,3.3;stroke-dashoffset:0;stroke-width:2;"/>
    </g>
    <g id="line2d_28"/>
    <g id="text_19">
     <!-- DecisionTree(AUPR = 0.8353) -->
     <defs>
      <path d="M 19.671875 64.796875 
L 19.671875 8.109375 
L 31.59375 8.109375 
Q 46.6875 8.109375 53.6875 14.9375 
Q 60.6875 21.78125 60.6875 36.53125 
Q 60.6875 51.171875 53.6875 57.984375 
Q 46.6875 64.796875 31.59375 64.796875 
z
M 9.8125 72.90625 
L 30.078125 72.90625 
Q 51.265625 72.90625 61.171875 64.09375 
Q 71.09375 55.28125 71.09375 36.53125 
Q 71.09375 17.671875 61.125 8.828125 
Q 51.171875 0 30.078125 0 
L 9.8125 0 
z
" id="DejaVuSans-44"/>
      <path d="M -0.296875 72.90625 
L 61.375 72.90625 
L 61.375 64.59375 
L 35.5 64.59375 
L 35.5 0 
L 25.59375 0 
L 25.59375 64.59375 
L -0.296875 64.59375 
z
" id="DejaVuSans-54"/>
     </defs>
     <g transform="translate(94.6 296.504312)scale(0.1 -0.1)">
      <use xlink:href="#DejaVuSans-44"/>
      <use x="77.001953" xlink:href="#DejaVuSans-65"/>
      <use x="138.525391" xlink:href="#DejaVuSans-63"/>
      <use x="193.505859" xlink:href="#DejaVuSans-69"/>
      <use x="221.289062" xlink:href="#DejaVuSans-73"/>
      <use x="273.388672" xlink:href="#DejaVuSans-69"/>
      <use x="301.171875" xlink:href="#DejaVuSans-6f"/>
      <use x="362.353516" xlink:href="#DejaVuSans-6e"/>
      <use x="425.732422" xlink:href="#DejaVuSans-54"/>
      <use x="486.597656" xlink:href="#DejaVuSans-72"/>
      <use x="527.679688" xlink:href="#DejaVuSans-65"/>
      <use x="589.203125" xlink:href="#DejaVuSans-65"/>
      <use x="650.726562" xlink:href="#DejaVuSans-28"/>
      <use x="689.740234" xlink:href="#DejaVuSans-41"/>
      <use x="758.148438" xlink:href="#DejaVuSans-55"/>
      <use x="831.341797" xlink:href="#DejaVuSans-50"/>
      <use x="891.644531" xlink:href="#DejaVuSans-52"/>
      <use x="961.126953" xlink:href="#DejaVuSans-20"/>
      <use x="992.914062" xlink:href="#DejaVuSans-3d"/>
      <use x="1076.703125" xlink:href="#DejaVuSans-20"/>
      <use x="1108.490234" xlink:href="#DejaVuSans-30"/>
      <use x="1172.113281" xlink:href="#DejaVuSans-2e"/>
      <use x="1203.900391" xlink:href="#DejaVuSans-38"/>
      <use x="1267.523438" xlink:href="#DejaVuSans-33"/>
      <use x="1331.146484" xlink:href="#DejaVuSans-35"/>
      <use x="1394.769531" xlink:href="#DejaVuSans-33"/>
      <use x="1458.392578" xlink:href="#DejaVuSans-29"/>
     </g>
    </g>
   </g>
  </g>
 </g>
 <defs>
  <clipPath id="pf3ead9d733">
   <rect height="266.112" width="357.12" x="57.6" y="41.472"/>
  </clipPath>
 </defs>
</svg>
