<?xml version="1.0" encoding="utf-8" standalone="no"?>
<!DOCTYPE svg PUBLIC "-//W3C//DTD SVG 1.1//EN"
  "http://www.w3.org/Graphics/SVG/1.1/DTD/svg11.dtd">
<!-- Created with matplotlib (http://matplotlib.org/) -->
<svg height="345pt" version="1.1" viewBox="0 0 460 345" width="460pt" xmlns="http://www.w3.org/2000/svg" xmlns:xlink="http://www.w3.org/1999/xlink">
 <defs>
  <style type="text/css">
*{stroke-linecap:butt;stroke-linejoin:round;}
  </style>
 </defs>
 <g id="figure_1">
  <g id="patch_1">
   <path d="M 0 345.6 
L 460.8 345.6 
L 460.8 0 
L 0 0 
z
" style="fill:#ffffff;"/>
  </g>
  <g id="axes_1">
   <g id="patch_2">
    <path d="M 57.6 307.584 
L 414.72 307.584 
L 414.72 41.472 
L 57.6 41.472 
z
" style="fill:#ffffff;"/>
   </g>
   <g id="matplotlib.axis_1">
    <g id="xtick_1">
     <g id="line2d_1">
      <defs>
       <path d="M 0 0 
L 0 3.5 
" id="m22571cfd5d" style="stroke:#000000;stroke-width:0.8;"/>
      </defs>
      <g>
       <use style="stroke:#000000;stroke-width:0.8;" x="73.832727" xlink:href="#m22571cfd5d" y="307.584"/>
      </g>
     </g>
     <g id="text_1">
      <!-- 0.0 -->
      <defs>
       <path d="M 31.78125 66.40625 
Q 24.171875 66.40625 20.328125 58.90625 
Q 16.5 51.421875 16.5 36.375 
Q 16.5 21.390625 20.328125 13.890625 
Q 24.171875 6.390625 31.78125 6.390625 
Q 39.453125 6.390625 43.28125 13.890625 
Q 47.125 21.390625 47.125 36.375 
Q 47.125 51.421875 43.28125 58.90625 
Q 39.453125 66.40625 31.78125 66.40625 
z
M 31.78125 74.21875 
Q 44.046875 74.21875 50.515625 64.515625 
Q 56.984375 54.828125 56.984375 36.375 
Q 56.984375 17.96875 50.515625 8.265625 
Q 44.046875 -1.421875 31.78125 -1.421875 
Q 19.53125 -1.421875 13.0625 8.265625 
Q 6.59375 17.96875 6.59375 36.375 
Q 6.59375 54.828125 13.0625 64.515625 
Q 19.53125 74.21875 31.78125 74.21875 
z
" id="DejaVuSans-30"/>
       <path d="M 10.6875 12.40625 
L 21 12.40625 
L 21 0 
L 10.6875 0 
z
" id="DejaVuSans-2e"/>
      </defs>
      <g transform="translate(65.881165 322.182437)scale(0.1 -0.1)">
       <use xlink:href="#DejaVuSans-30"/>
       <use x="63.623047" xlink:href="#DejaVuSans-2e"/>
       <use x="95.410156" xlink:href="#DejaVuSans-30"/>
      </g>
     </g>
    </g>
    <g id="xtick_2">
     <g id="line2d_2">
      <g>
       <use style="stroke:#000000;stroke-width:0.8;" x="138.763636" xlink:href="#m22571cfd5d" y="307.584"/>
      </g>
     </g>
     <g id="text_2">
      <!-- 0.2 -->
      <defs>
       <path d="M 19.1875 8.296875 
L 53.609375 8.296875 
L 53.609375 0 
L 7.328125 0 
L 7.328125 8.296875 
Q 12.9375 14.109375 22.625 23.890625 
Q 32.328125 33.6875 34.8125 36.53125 
Q 39.546875 41.84375 41.421875 45.53125 
Q 43.3125 49.21875 43.3125 52.78125 
Q 43.3125 58.59375 39.234375 62.25 
Q 35.15625 65.921875 28.609375 65.921875 
Q 23.96875 65.921875 18.8125 64.3125 
Q 13.671875 62.703125 7.8125 59.421875 
L 7.8125 69.390625 
Q 13.765625 71.78125 18.9375 73 
Q 24.125 74.21875 28.421875 74.21875 
Q 39.75 74.21875 46.484375 68.546875 
Q 53.21875 62.890625 53.21875 53.421875 
Q 53.21875 48.921875 51.53125 44.890625 
Q 49.859375 40.875 45.40625 35.40625 
Q 44.1875 33.984375 37.640625 27.21875 
Q 31.109375 20.453125 19.1875 8.296875 
z
" id="DejaVuSans-32"/>
      </defs>
      <g transform="translate(130.812074 322.182437)scale(0.1 -0.1)">
       <use xlink:href="#DejaVuSans-30"/>
       <use x="63.623047" xlink:href="#DejaVuSans-2e"/>
       <use x="95.410156" xlink:href="#DejaVuSans-32"/>
      </g>
     </g>
    </g>
    <g id="xtick_3">
     <g id="line2d_3">
      <g>
       <use style="stroke:#000000;stroke-width:0.8;" x="203.694545" xlink:href="#m22571cfd5d" y="307.584"/>
      </g>
     </g>
     <g id="text_3">
      <!-- 0.4 -->
      <defs>
       <path d="M 37.796875 64.3125 
L 12.890625 25.390625 
L 37.796875 25.390625 
z
M 35.203125 72.90625 
L 47.609375 72.90625 
L 47.609375 25.390625 
L 58.015625 25.390625 
L 58.015625 17.1875 
L 47.609375 17.1875 
L 47.609375 0 
L 37.796875 0 
L 37.796875 17.1875 
L 4.890625 17.1875 
L 4.890625 26.703125 
z
" id="DejaVuSans-34"/>
      </defs>
      <g transform="translate(195.742983 322.182437)scale(0.1 -0.1)">
       <use xlink:href="#DejaVuSans-30"/>
       <use x="63.623047" xlink:href="#DejaVuSans-2e"/>
       <use x="95.410156" xlink:href="#DejaVuSans-34"/>
      </g>
     </g>
    </g>
    <g id="xtick_4">
     <g id="line2d_4">
      <g>
       <use style="stroke:#000000;stroke-width:0.8;" x="268.625455" xlink:href="#m22571cfd5d" y="307.584"/>
      </g>
     </g>
     <g id="text_4">
      <!-- 0.6 -->
      <defs>
       <path d="M 33.015625 40.375 
Q 26.375 40.375 22.484375 35.828125 
Q 18.609375 31.296875 18.609375 23.390625 
Q 18.609375 15.53125 22.484375 10.953125 
Q 26.375 6.390625 33.015625 6.390625 
Q 39.65625 6.390625 43.53125 10.953125 
Q 47.40625 15.53125 47.40625 23.390625 
Q 47.40625 31.296875 43.53125 35.828125 
Q 39.65625 40.375 33.015625 40.375 
z
M 52.59375 71.296875 
L 52.59375 62.3125 
Q 48.875 64.0625 45.09375 64.984375 
Q 41.3125 65.921875 37.59375 65.921875 
Q 27.828125 65.921875 22.671875 59.328125 
Q 17.53125 52.734375 16.796875 39.40625 
Q 19.671875 43.65625 24.015625 45.921875 
Q 28.375 48.1875 33.59375 48.1875 
Q 44.578125 48.1875 50.953125 41.515625 
Q 57.328125 34.859375 57.328125 23.390625 
Q 57.328125 12.15625 50.6875 5.359375 
Q 44.046875 -1.421875 33.015625 -1.421875 
Q 20.359375 -1.421875 13.671875 8.265625 
Q 6.984375 17.96875 6.984375 36.375 
Q 6.984375 53.65625 15.1875 63.9375 
Q 23.390625 74.21875 37.203125 74.21875 
Q 40.921875 74.21875 44.703125 73.484375 
Q 48.484375 72.75 52.59375 71.296875 
z
" id="DejaVuSans-36"/>
      </defs>
      <g transform="translate(260.673892 322.182437)scale(0.1 -0.1)">
       <use xlink:href="#DejaVuSans-30"/>
       <use x="63.623047" xlink:href="#DejaVuSans-2e"/>
       <use x="95.410156" xlink:href="#DejaVuSans-36"/>
      </g>
     </g>
    </g>
    <g id="xtick_5">
     <g id="line2d_5">
      <g>
       <use style="stroke:#000000;stroke-width:0.8;" x="333.556364" xlink:href="#m22571cfd5d" y="307.584"/>
      </g>
     </g>
     <g id="text_5">
      <!-- 0.8 -->
      <defs>
       <path d="M 31.78125 34.625 
Q 24.75 34.625 20.71875 30.859375 
Q 16.703125 27.09375 16.703125 20.515625 
Q 16.703125 13.921875 20.71875 10.15625 
Q 24.75 6.390625 31.78125 6.390625 
Q 38.8125 6.390625 42.859375 10.171875 
Q 46.921875 13.96875 46.921875 20.515625 
Q 46.921875 27.09375 42.890625 30.859375 
Q 38.875 34.625 31.78125 34.625 
z
M 21.921875 38.8125 
Q 15.578125 40.375 12.03125 44.71875 
Q 8.5 49.078125 8.5 55.328125 
Q 8.5 64.0625 14.71875 69.140625 
Q 20.953125 74.21875 31.78125 74.21875 
Q 42.671875 74.21875 48.875 69.140625 
Q 55.078125 64.0625 55.078125 55.328125 
Q 55.078125 49.078125 51.53125 44.71875 
Q 48 40.375 41.703125 38.8125 
Q 48.828125 37.15625 52.796875 32.3125 
Q 56.78125 27.484375 56.78125 20.515625 
Q 56.78125 9.90625 50.3125 4.234375 
Q 43.84375 -1.421875 31.78125 -1.421875 
Q 19.734375 -1.421875 13.25 4.234375 
Q 6.78125 9.90625 6.78125 20.515625 
Q 6.78125 27.484375 10.78125 32.3125 
Q 14.796875 37.15625 21.921875 38.8125 
z
M 18.3125 54.390625 
Q 18.3125 48.734375 21.84375 45.5625 
Q 25.390625 42.390625 31.78125 42.390625 
Q 38.140625 42.390625 41.71875 45.5625 
Q 45.3125 48.734375 45.3125 54.390625 
Q 45.3125 60.0625 41.71875 63.234375 
Q 38.140625 66.40625 31.78125 66.40625 
Q 25.390625 66.40625 21.84375 63.234375 
Q 18.3125 60.0625 18.3125 54.390625 
z
" id="DejaVuSans-38"/>
      </defs>
      <g transform="translate(325.604801 322.182437)scale(0.1 -0.1)">
       <use xlink:href="#DejaVuSans-30"/>
       <use x="63.623047" xlink:href="#DejaVuSans-2e"/>
       <use x="95.410156" xlink:href="#DejaVuSans-38"/>
      </g>
     </g>
    </g>
    <g id="xtick_6">
     <g id="line2d_6">
      <g>
       <use style="stroke:#000000;stroke-width:0.8;" x="398.487273" xlink:href="#m22571cfd5d" y="307.584"/>
      </g>
     </g>
     <g id="text_6">
      <!-- 1.0 -->
      <defs>
       <path d="M 12.40625 8.296875 
L 28.515625 8.296875 
L 28.515625 63.921875 
L 10.984375 60.40625 
L 10.984375 69.390625 
L 28.421875 72.90625 
L 38.28125 72.90625 
L 38.28125 8.296875 
L 54.390625 8.296875 
L 54.390625 0 
L 12.40625 0 
z
" id="DejaVuSans-31"/>
      </defs>
      <g transform="translate(390.53571 322.182437)scale(0.1 -0.1)">
       <use xlink:href="#DejaVuSans-31"/>
       <use x="63.623047" xlink:href="#DejaVuSans-2e"/>
       <use x="95.410156" xlink:href="#DejaVuSans-30"/>
      </g>
     </g>
    </g>
    <g id="text_7">
     <!-- False Positive Rate -->
     <defs>
      <path d="M 9.8125 72.90625 
L 51.703125 72.90625 
L 51.703125 64.59375 
L 19.671875 64.59375 
L 19.671875 43.109375 
L 48.578125 43.109375 
L 48.578125 34.8125 
L 19.671875 34.8125 
L 19.671875 0 
L 9.8125 0 
z
" id="DejaVuSans-46"/>
      <path d="M 34.28125 27.484375 
Q 23.390625 27.484375 19.1875 25 
Q 14.984375 22.515625 14.984375 16.5 
Q 14.984375 11.71875 18.140625 8.90625 
Q 21.296875 6.109375 26.703125 6.109375 
Q 34.1875 6.109375 38.703125 11.40625 
Q 43.21875 16.703125 43.21875 25.484375 
L 43.21875 27.484375 
z
M 52.203125 31.203125 
L 52.203125 0 
L 43.21875 0 
L 43.21875 8.296875 
Q 40.140625 3.328125 35.546875 0.953125 
Q 30.953125 -1.421875 24.3125 -1.421875 
Q 15.921875 -1.421875 10.953125 3.296875 
Q 6 8.015625 6 15.921875 
Q 6 25.140625 12.171875 29.828125 
Q 18.359375 34.515625 30.609375 34.515625 
L 43.21875 34.515625 
L 43.21875 35.40625 
Q 43.21875 41.609375 39.140625 45 
Q 35.0625 48.390625 27.6875 48.390625 
Q 23 48.390625 18.546875 47.265625 
Q 14.109375 46.140625 10.015625 43.890625 
L 10.015625 52.203125 
Q 14.9375 54.109375 19.578125 55.046875 
Q 24.21875 56 28.609375 56 
Q 40.484375 56 46.34375 49.84375 
Q 52.203125 43.703125 52.203125 31.203125 
z
" id="DejaVuSans-61"/>
      <path d="M 9.421875 75.984375 
L 18.40625 75.984375 
L 18.40625 0 
L 9.421875 0 
z
" id="DejaVuSans-6c"/>
      <path d="M 44.28125 53.078125 
L 44.28125 44.578125 
Q 40.484375 46.53125 36.375 47.5 
Q 32.28125 48.484375 27.875 48.484375 
Q 21.1875 48.484375 17.84375 46.4375 
Q 14.5 44.390625 14.5 40.28125 
Q 14.5 37.15625 16.890625 35.375 
Q 19.28125 33.59375 26.515625 31.984375 
L 29.59375 31.296875 
Q 39.15625 29.25 43.1875 25.515625 
Q 47.21875 21.78125 47.21875 15.09375 
Q 47.21875 7.46875 41.1875 3.015625 
Q 35.15625 -1.421875 24.609375 -1.421875 
Q 20.21875 -1.421875 15.453125 -0.5625 
Q 10.6875 0.296875 5.421875 2 
L 5.421875 11.28125 
Q 10.40625 8.6875 15.234375 7.390625 
Q 20.0625 6.109375 24.8125 6.109375 
Q 31.15625 6.109375 34.5625 8.28125 
Q 37.984375 10.453125 37.984375 14.40625 
Q 37.984375 18.0625 35.515625 20.015625 
Q 33.0625 21.96875 24.703125 23.78125 
L 21.578125 24.515625 
Q 13.234375 26.265625 9.515625 29.90625 
Q 5.8125 33.546875 5.8125 39.890625 
Q 5.8125 47.609375 11.28125 51.796875 
Q 16.75 56 26.8125 56 
Q 31.78125 56 36.171875 55.265625 
Q 40.578125 54.546875 44.28125 53.078125 
z
" id="DejaVuSans-73"/>
      <path d="M 56.203125 29.59375 
L 56.203125 25.203125 
L 14.890625 25.203125 
Q 15.484375 15.921875 20.484375 11.0625 
Q 25.484375 6.203125 34.421875 6.203125 
Q 39.59375 6.203125 44.453125 7.46875 
Q 49.3125 8.734375 54.109375 11.28125 
L 54.109375 2.78125 
Q 49.265625 0.734375 44.1875 -0.34375 
Q 39.109375 -1.421875 33.890625 -1.421875 
Q 20.796875 -1.421875 13.15625 6.1875 
Q 5.515625 13.8125 5.515625 26.8125 
Q 5.515625 40.234375 12.765625 48.109375 
Q 20.015625 56 32.328125 56 
Q 43.359375 56 49.78125 48.890625 
Q 56.203125 41.796875 56.203125 29.59375 
z
M 47.21875 32.234375 
Q 47.125 39.59375 43.09375 43.984375 
Q 39.0625 48.390625 32.421875 48.390625 
Q 24.90625 48.390625 20.390625 44.140625 
Q 15.875 39.890625 15.1875 32.171875 
z
" id="DejaVuSans-65"/>
      <path id="DejaVuSans-20"/>
      <path d="M 19.671875 64.796875 
L 19.671875 37.40625 
L 32.078125 37.40625 
Q 38.96875 37.40625 42.71875 40.96875 
Q 46.484375 44.53125 46.484375 51.125 
Q 46.484375 57.671875 42.71875 61.234375 
Q 38.96875 64.796875 32.078125 64.796875 
z
M 9.8125 72.90625 
L 32.078125 72.90625 
Q 44.34375 72.90625 50.609375 67.359375 
Q 56.890625 61.8125 56.890625 51.125 
Q 56.890625 40.328125 50.609375 34.8125 
Q 44.34375 29.296875 32.078125 29.296875 
L 19.671875 29.296875 
L 19.671875 0 
L 9.8125 0 
z
" id="DejaVuSans-50"/>
      <path d="M 30.609375 48.390625 
Q 23.390625 48.390625 19.1875 42.75 
Q 14.984375 37.109375 14.984375 27.296875 
Q 14.984375 17.484375 19.15625 11.84375 
Q 23.34375 6.203125 30.609375 6.203125 
Q 37.796875 6.203125 41.984375 11.859375 
Q 46.1875 17.53125 46.1875 27.296875 
Q 46.1875 37.015625 41.984375 42.703125 
Q 37.796875 48.390625 30.609375 48.390625 
z
M 30.609375 56 
Q 42.328125 56 49.015625 48.375 
Q 55.71875 40.765625 55.71875 27.296875 
Q 55.71875 13.875 49.015625 6.21875 
Q 42.328125 -1.421875 30.609375 -1.421875 
Q 18.84375 -1.421875 12.171875 6.21875 
Q 5.515625 13.875 5.515625 27.296875 
Q 5.515625 40.765625 12.171875 48.375 
Q 18.84375 56 30.609375 56 
z
" id="DejaVuSans-6f"/>
      <path d="M 9.421875 54.6875 
L 18.40625 54.6875 
L 18.40625 0 
L 9.421875 0 
z
M 9.421875 75.984375 
L 18.40625 75.984375 
L 18.40625 64.59375 
L 9.421875 64.59375 
z
" id="DejaVuSans-69"/>
      <path d="M 18.3125 70.21875 
L 18.3125 54.6875 
L 36.8125 54.6875 
L 36.8125 47.703125 
L 18.3125 47.703125 
L 18.3125 18.015625 
Q 18.3125 11.328125 20.140625 9.421875 
Q 21.96875 7.515625 27.59375 7.515625 
L 36.8125 7.515625 
L 36.8125 0 
L 27.59375 0 
Q 17.1875 0 13.234375 3.875 
Q 9.28125 7.765625 9.28125 18.015625 
L 9.28125 47.703125 
L 2.6875 47.703125 
L 2.6875 54.6875 
L 9.28125 54.6875 
L 9.28125 70.21875 
z
" id="DejaVuSans-74"/>
      <path d="M 2.984375 54.6875 
L 12.5 54.6875 
L 29.59375 8.796875 
L 46.6875 54.6875 
L 56.203125 54.6875 
L 35.6875 0 
L 23.484375 0 
z
" id="DejaVuSans-76"/>
      <path d="M 44.390625 34.1875 
Q 47.5625 33.109375 50.5625 29.59375 
Q 53.5625 26.078125 56.59375 19.921875 
L 66.609375 0 
L 56 0 
L 46.6875 18.703125 
Q 43.0625 26.03125 39.671875 28.421875 
Q 36.28125 30.8125 30.421875 30.8125 
L 19.671875 30.8125 
L 19.671875 0 
L 9.8125 0 
L 9.8125 72.90625 
L 32.078125 72.90625 
Q 44.578125 72.90625 50.734375 67.671875 
Q 56.890625 62.453125 56.890625 51.90625 
Q 56.890625 45.015625 53.6875 40.46875 
Q 50.484375 35.9375 44.390625 34.1875 
z
M 19.671875 64.796875 
L 19.671875 38.921875 
L 32.078125 38.921875 
Q 39.203125 38.921875 42.84375 42.21875 
Q 46.484375 45.515625 46.484375 51.90625 
Q 46.484375 58.296875 42.84375 61.546875 
Q 39.203125 64.796875 32.078125 64.796875 
z
" id="DejaVuSans-52"/>
     </defs>
     <g transform="translate(174.792891 338.140094)scale(0.13 -0.13)">
      <use xlink:href="#DejaVuSans-46"/>
      <use x="57.378906" xlink:href="#DejaVuSans-61"/>
      <use x="118.658203" xlink:href="#DejaVuSans-6c"/>
      <use x="146.441406" xlink:href="#DejaVuSans-73"/>
      <use x="198.541016" xlink:href="#DejaVuSans-65"/>
      <use x="260.064453" xlink:href="#DejaVuSans-20"/>
      <use x="291.851562" xlink:href="#DejaVuSans-50"/>
      <use x="352.107422" xlink:href="#DejaVuSans-6f"/>
      <use x="413.289062" xlink:href="#DejaVuSans-73"/>
      <use x="465.388672" xlink:href="#DejaVuSans-69"/>
      <use x="493.171875" xlink:href="#DejaVuSans-74"/>
      <use x="532.380859" xlink:href="#DejaVuSans-69"/>
      <use x="560.164062" xlink:href="#DejaVuSans-76"/>
      <use x="619.34375" xlink:href="#DejaVuSans-65"/>
      <use x="680.867188" xlink:href="#DejaVuSans-20"/>
      <use x="712.654297" xlink:href="#DejaVuSans-52"/>
      <use x="782.105469" xlink:href="#DejaVuSans-61"/>
      <use x="843.384766" xlink:href="#DejaVuSans-74"/>
      <use x="882.59375" xlink:href="#DejaVuSans-65"/>
     </g>
    </g>
   </g>
   <g id="matplotlib.axis_2">
    <g id="ytick_1">
     <g id="line2d_7">
      <defs>
       <path d="M 0 0 
L -3.5 0 
" id="m23261ee906" style="stroke:#000000;stroke-width:0.8;"/>
      </defs>
      <g>
       <use style="stroke:#000000;stroke-width:0.8;" x="57.6" xlink:href="#m23261ee906" y="295.488"/>
      </g>
     </g>
     <g id="text_8">
      <!-- 0.0 -->
      <g transform="translate(34.696875 299.287219)scale(0.1 -0.1)">
       <use xlink:href="#DejaVuSans-30"/>
       <use x="63.623047" xlink:href="#DejaVuSans-2e"/>
       <use x="95.410156" xlink:href="#DejaVuSans-30"/>
      </g>
     </g>
    </g>
    <g id="ytick_2">
     <g id="line2d_8">
      <g>
       <use style="stroke:#000000;stroke-width:0.8;" x="57.6" xlink:href="#m23261ee906" y="247.104"/>
      </g>
     </g>
     <g id="text_9">
      <!-- 0.2 -->
      <g transform="translate(34.696875 250.903219)scale(0.1 -0.1)">
       <use xlink:href="#DejaVuSans-30"/>
       <use x="63.623047" xlink:href="#DejaVuSans-2e"/>
       <use x="95.410156" xlink:href="#DejaVuSans-32"/>
      </g>
     </g>
    </g>
    <g id="ytick_3">
     <g id="line2d_9">
      <g>
       <use style="stroke:#000000;stroke-width:0.8;" x="57.6" xlink:href="#m23261ee906" y="198.72"/>
      </g>
     </g>
     <g id="text_10">
      <!-- 0.4 -->
      <g transform="translate(34.696875 202.519219)scale(0.1 -0.1)">
       <use xlink:href="#DejaVuSans-30"/>
       <use x="63.623047" xlink:href="#DejaVuSans-2e"/>
       <use x="95.410156" xlink:href="#DejaVuSans-34"/>
      </g>
     </g>
    </g>
    <g id="ytick_4">
     <g id="line2d_10">
      <g>
       <use style="stroke:#000000;stroke-width:0.8;" x="57.6" xlink:href="#m23261ee906" y="150.336"/>
      </g>
     </g>
     <g id="text_11">
      <!-- 0.6 -->
      <g transform="translate(34.696875 154.135219)scale(0.1 -0.1)">
       <use xlink:href="#DejaVuSans-30"/>
       <use x="63.623047" xlink:href="#DejaVuSans-2e"/>
       <use x="95.410156" xlink:href="#DejaVuSans-36"/>
      </g>
     </g>
    </g>
    <g id="ytick_5">
     <g id="line2d_11">
      <g>
       <use style="stroke:#000000;stroke-width:0.8;" x="57.6" xlink:href="#m23261ee906" y="101.952"/>
      </g>
     </g>
     <g id="text_12">
      <!-- 0.8 -->
      <g transform="translate(34.696875 105.751219)scale(0.1 -0.1)">
       <use xlink:href="#DejaVuSans-30"/>
       <use x="63.623047" xlink:href="#DejaVuSans-2e"/>
       <use x="95.410156" xlink:href="#DejaVuSans-38"/>
      </g>
     </g>
    </g>
    <g id="ytick_6">
     <g id="line2d_12">
      <g>
       <use style="stroke:#000000;stroke-width:0.8;" x="57.6" xlink:href="#m23261ee906" y="53.568"/>
      </g>
     </g>
     <g id="text_13">
      <!-- 1.0 -->
      <g transform="translate(34.696875 57.367219)scale(0.1 -0.1)">
       <use xlink:href="#DejaVuSans-31"/>
       <use x="63.623047" xlink:href="#DejaVuSans-2e"/>
       <use x="95.410156" xlink:href="#DejaVuSans-30"/>
      </g>
     </g>
    </g>
    <g id="text_14">
     <!-- True Positive Rate -->
     <defs>
      <path d="M -0.296875 72.90625 
L 61.375 72.90625 
L 61.375 64.59375 
L 35.5 64.59375 
L 35.5 0 
L 25.59375 0 
L 25.59375 64.59375 
L -0.296875 64.59375 
z
" id="DejaVuSans-54"/>
      <path d="M 41.109375 46.296875 
Q 39.59375 47.171875 37.8125 47.578125 
Q 36.03125 48 33.890625 48 
Q 26.265625 48 22.1875 43.046875 
Q 18.109375 38.09375 18.109375 28.8125 
L 18.109375 0 
L 9.078125 0 
L 9.078125 54.6875 
L 18.109375 54.6875 
L 18.109375 46.1875 
Q 20.953125 51.171875 25.484375 53.578125 
Q 30.03125 56 36.53125 56 
Q 37.453125 56 38.578125 55.875 
Q 39.703125 55.765625 41.0625 55.515625 
z
" id="DejaVuSans-72"/>
      <path d="M 8.5 21.578125 
L 8.5 54.6875 
L 17.484375 54.6875 
L 17.484375 21.921875 
Q 17.484375 14.15625 20.5 10.265625 
Q 23.53125 6.390625 29.59375 6.390625 
Q 36.859375 6.390625 41.078125 11.03125 
Q 45.3125 15.671875 45.3125 23.6875 
L 45.3125 54.6875 
L 54.296875 54.6875 
L 54.296875 0 
L 45.3125 0 
L 45.3125 8.40625 
Q 42.046875 3.421875 37.71875 1 
Q 33.40625 -1.421875 27.6875 -1.421875 
Q 18.265625 -1.421875 13.375 4.4375 
Q 8.5 10.296875 8.5 21.578125 
z
M 31.109375 56 
z
" id="DejaVuSans-75"/>
     </defs>
     <g transform="translate(27.993281 233.737922)rotate(-90)scale(0.13 -0.13)">
      <use xlink:href="#DejaVuSans-54"/>
      <use x="60.865234" xlink:href="#DejaVuSans-72"/>
      <use x="101.978516" xlink:href="#DejaVuSans-75"/>
      <use x="165.357422" xlink:href="#DejaVuSans-65"/>
      <use x="226.880859" xlink:href="#DejaVuSans-20"/>
      <use x="258.667969" xlink:href="#DejaVuSans-50"/>
      <use x="318.923828" xlink:href="#DejaVuSans-6f"/>
      <use x="380.105469" xlink:href="#DejaVuSans-73"/>
      <use x="432.205078" xlink:href="#DejaVuSans-69"/>
      <use x="459.988281" xlink:href="#DejaVuSans-74"/>
      <use x="499.197266" xlink:href="#DejaVuSans-69"/>
      <use x="526.980469" xlink:href="#DejaVuSans-76"/>
      <use x="586.160156" xlink:href="#DejaVuSans-65"/>
      <use x="647.683594" xlink:href="#DejaVuSans-20"/>
      <use x="679.470703" xlink:href="#DejaVuSans-52"/>
      <use x="748.921875" xlink:href="#DejaVuSans-61"/>
      <use x="810.201172" xlink:href="#DejaVuSans-74"/>
      <use x="849.410156" xlink:href="#DejaVuSans-65"/>
     </g>
    </g>
   </g>
   <g id="line2d_13">
    <path clip-path="url(#p380a852758)" d="M 73.832727 295.488 
L 74.157707 189.990238 
L 74.482686 188.101373 
L 74.807666 172.574492 
L 75.132645 171.702708 
L 75.457625 165.225147 
L 75.782604 164.014336 
L 76.107584 150.305049 
L 76.432563 149.554346 
L 76.757543 147.058331 
L 77.082523 146.113899 
L 77.407502 143.317566 
L 77.732482 142.348917 
L 78.057461 140.995972 
L 78.382441 140.786098 
L 78.70742 138.502538 
L 79.0324 138.163511 
L 79.357379 137.484996 
L 79.682359 136.348796 
L 80.332318 134.98547 
L 80.657297 134.444642 
L 80.982277 132.959936 
L 81.307256 132.645125 
L 81.957215 131.699208 
L 82.607174 129.500827 
L 82.932154 128.291603 
L 83.582113 127.652093 
L 84.557052 127.230793 
L 84.882031 127.030083 
L 85.53199 125.097637 
L 85.85697 123.665197 
L 86.181949 123.197017 
L 86.506929 122.375219 
L 86.831908 121.963543 
L 87.156888 120.639214 
L 88.131826 119.636741 
L 88.456806 118.891488 
L 90.081704 117.652523 
L 90.406683 116.364526 
L 91.056642 115.560123 
L 92.35656 114.594299 
L 93.331499 113.345727 
L 93.656478 112.934051 
L 93.981458 112.310763 
L 95.931335 110.107378 
L 99.50611 108.683438 
L 100.156069 108.360248 
L 101.131007 108.050343 
L 104.055823 106.199495 
L 104.705782 105.993132 
L 106.33068 105.566149 
L 108.930516 104.40133 
L 111.530352 102.576307 
L 112.505291 101.84689 
L 113.15525 101.472649 
L 118.029943 99.465445 
L 119.329861 98.844509 
L 121.279738 98.239788 
L 124.854513 96.840763 
L 126.154431 96.581493 
L 127.129369 95.968083 
L 127.779328 95.608456 
L 128.429287 95.409474 
L 132.979001 94.347689 
L 135.903817 93.61357 
L 146.303161 92.551641 
L 147.603079 92.348972 
L 154.752629 90.583804 
L 158.327404 90.02299 
L 168.726749 88.573985 
L 172.626503 88.240354 
L 180.426011 87.525105 
L 199.274824 85.97493 
L 208.049271 85.413943 
L 217.798657 84.587908 
L 230.472858 83.773737 
L 235.672531 83.343467 
L 246.071876 82.419845 
L 250.296609 81.997842 
L 257.771138 81.454149 
L 287.994234 79.180756 
L 290.59407 78.979449 
L 297.74362 78.419924 
L 306.843047 77.635571 
L 318.21733 76.930616 
L 329.916593 75.744897 
L 333.166388 75.334456 
L 335.441245 75.003011 
L 341.615856 74.170942 
L 343.240753 73.773926 
L 357.864832 69.696312 
L 359.16475 68.729686 
L 363.389484 67.527395 
L 366.3143 66.64542 
L 368.264177 65.794291 
L 369.239115 64.606925 
L 372.163931 62.946658 
L 373.13887 62.591087 
L 384.838133 58.717542 
L 388.087928 57.413198 
L 398.487273 53.568 
L 398.487273 53.568 
" style="fill:none;stroke:#000000;stroke-linecap:square;stroke-width:2;"/>
   </g>
   <g id="line2d_14">
    <path clip-path="url(#p380a852758)" d="M 73.832727 295.488 
L 74.157707 252.027461 
L 74.482686 230.866524 
L 75.457625 198.71783 
L 76.107584 180.557708 
L 76.757543 169.142997 
L 78.057461 157.570788 
L 79.0324 152.956462 
L 80.007338 149.513411 
L 82.607174 141.20433 
L 84.882031 135.433662 
L 86.181949 132.536326 
L 91.381622 126.627858 
L 98.531171 119.081366 
L 101.455987 116.640035 
L 107.630598 112.348478 
L 112.180311 109.683379 
L 116.730025 107.455964 
L 119.65484 106.393754 
L 122.579656 105.506781 
L 147.603079 98.970559 
L 153.77769 97.743213 
L 179.451073 93.657876 
L 197.649926 90.539971 
L 226.248124 86.077776 
L 296.443702 76.606315 
L 313.342637 73.888312 
L 319.192269 72.692372 
L 398.487273 53.568 
L 398.487273 53.568 
" style="fill:none;stroke:#ff0000;stroke-dasharray:2,3.3;stroke-dashoffset:0;stroke-width:2;"/>
   </g>
   <g id="line2d_15">
    <path clip-path="url(#p380a852758)" d="M 73.832727 295.488 
L 74.157707 243.195321 
L 74.482686 243.195321 
L 74.807666 215.59134 
L 75.132645 215.542907 
L 75.457625 209.290512 
L 75.782604 209.290512 
L 76.107584 204.786185 
L 76.432563 204.786185 
L 76.757543 197.925658 
L 77.082523 197.925658 
L 77.407502 196.800448 
L 77.732482 196.800448 
L 78.057461 183.799799 
L 78.382441 183.799799 
L 78.70742 180.725812 
L 79.0324 180.725812 
L 79.357379 179.089144 
L 79.682359 178.882815 
L 80.007338 178.882815 
L 80.332318 177.241785 
L 80.657297 177.241785 
L 80.982277 172.725244 
L 81.307256 172.725244 
L 81.632236 169.33653 
L 81.957215 169.33653 
L 82.282195 167.182296 
L 82.607174 167.182296 
L 82.932154 165.850758 
L 83.257133 165.850758 
L 83.582113 164.520966 
L 83.907093 164.520966 
L 84.232072 162.781133 
L 84.557052 162.781133 
L 84.882031 161.246757 
L 85.207011 161.143593 
L 85.53199 160.120675 
L 86.181949 160.120675 
L 86.506929 159.302341 
L 86.831908 159.302341 
L 87.156888 156.736323 
L 87.481867 156.736323 
L 87.806847 155.405658 
L 88.131826 155.405658 
L 88.456806 152.231996 
L 88.781785 152.231996 
L 89.106765 151.720537 
L 89.431744 151.720537 
L 89.756724 148.035417 
L 90.081704 148.035417 
L 90.406683 147.62625 
L 90.731663 147.62625 
L 91.056642 146.194165 
L 91.381622 145.781509 
L 91.706601 144.656299 
L 92.031581 144.346807 
L 92.35656 144.346807 
L 92.68154 143.015269 
L 93.006519 143.015269 
L 93.331499 141.991479 
L 93.656478 141.991479 
L 93.981458 141.479148 
L 94.306437 141.479148 
L 94.631417 140.145866 
L 94.956396 140.145866 
L 95.281376 139.736698 
L 95.606355 139.633534 
L 95.931335 137.792283 
L 96.256314 137.48279 
L 96.581294 136.050706 
L 96.906274 135.947541 
L 97.231253 134.822332 
L 97.881212 134.513712 
L 98.531171 134.410548 
L 98.856151 133.898217 
L 99.18113 133.898217 
L 99.50611 133.48905 
L 99.831089 133.48905 
L 100.156069 132.873554 
L 100.481048 132.873554 
L 100.806028 131.952928 
L 101.131007 131.952928 
L 101.455987 131.543761 
L 101.780966 131.337433 
L 102.105946 130.621391 
L 102.430925 130.518227 
L 102.755905 129.904476 
L 103.080885 129.904476 
L 103.405864 129.393017 
L 104.705782 129.08527 
L 105.030762 128.164644 
L 105.355741 128.164644 
L 105.680721 127.857769 
L 106.0057 127.857769 
L 106.33068 127.141726 
L 106.655659 127.141726 
L 106.980639 126.016517 
L 107.305618 126.016517 
L 107.630598 125.505058 
L 107.955577 125.401894 
L 108.280557 124.685852 
L 108.605536 124.582688 
L 109.255495 123.96632 
L 109.580475 123.250277 
L 109.905455 123.147113 
L 110.555414 122.63391 
L 110.880393 122.63391 
L 111.205373 122.224743 
L 111.530352 122.018414 
L 111.855332 121.404664 
L 112.180311 121.404664 
L 112.505291 120.995497 
L 113.15525 120.893205 
L 113.805209 120.379129 
L 114.130188 120.275965 
L 114.455168 119.96909 
L 114.780147 119.865925 
L 115.105127 119.55905 
L 115.430106 119.55905 
L 115.755086 118.9453 
L 116.080066 118.738971 
L 117.055004 118.635807 
L 117.704963 117.506236 
L 118.029943 117.19936 
L 118.354922 117.19936 
L 119.004881 116.686157 
L 120.954758 116.173826 
L 121.279738 115.355491 
L 122.254676 115.2532 
L 122.579656 114.737846 
L 123.229615 114.640981 
L 123.554595 114.330829 
L 124.529533 113.919045 
L 124.854513 113.203002 
L 125.829451 112.895255 
L 126.154431 112.58838 
L 127.129369 112.486088 
L 127.454349 111.769173 
L 127.779328 111.769173 
L 128.104308 111.360006 
L 128.429287 111.360006 
L 128.754267 111.155423 
L 129.404226 111.052258 
L 129.729206 110.5408 
L 130.054185 110.5408 
L 130.379165 110.131633 
L 132.004062 110.029341 
L 132.329042 109.517882 
L 132.654021 109.517882 
L 132.979001 109.108715 
L 133.30398 109.108715 
L 133.62896 108.800967 
L 133.953939 108.800967 
L 134.278919 107.675758 
L 134.603898 107.675758 
L 134.928878 107.368883 
L 135.578837 107.368883 
L 135.903817 107.164299 
L 136.228796 106.44215 
L 136.878755 106.44215 
L 137.853694 105.826655 
L 138.178673 105.826655 
L 138.503653 105.518035 
L 138.828632 105.518035 
L 139.153612 105.312579 
L 139.478591 105.312579 
L 139.803571 105.004831 
L 140.12855 105.004831 
L 140.45353 104.800247 
L 140.778509 104.800247 
L 141.103489 104.595664 
L 142.078428 104.493372 
L 142.728387 104.390208 
L 143.703325 104.287916 
L 144.353284 104.184752 
L 144.678264 103.524818 
L 145.003243 103.427953 
L 145.328223 103.16009 
L 145.653202 103.16009 
L 145.978182 102.852342 
L 146.303161 102.852342 
L 146.628141 102.545467 
L 147.928059 102.442302 
L 150.202916 101.82768 
L 150.527895 101.82768 
L 150.852875 101.518187 
L 151.177854 101.518187 
L 151.502834 101.312731 
L 151.827813 101.312731 
L 152.152793 101.108148 
L 152.477772 101.108148 
L 152.802752 100.697236 
L 154.10267 100.594944 
L 154.427649 100.287196 
L 154.752629 100.287196 
L 155.077609 99.876284 
L 155.402588 99.876284 
L 155.727568 99.671701 
L 156.702506 99.671701 
L 157.027486 99.467117 
L 157.352465 99.467117 
L 157.677445 98.747585 
L 158.002424 98.747585 
L 158.327404 98.236127 
L 159.627322 98.132962 
L 159.952301 97.824342 
L 160.92724 97.722051 
L 161.577199 97.619759 
L 161.902179 96.801425 
L 162.227158 96.801425 
L 162.552138 96.185057 
L 163.527076 96.082765 
L 164.502015 95.878182 
L 165.151974 95.868761 
L 165.476953 95.565568 
L 166.451892 95.364106 
L 167.101851 95.364106 
L 167.42683 95.159522 
L 167.75181 95.159522 
L 168.07679 94.852647 
L 168.401769 94.852647 
L 168.726749 94.212888 
L 169.701687 94.034313 
L 170.026667 93.829729 
L 170.351646 93.829729 
L 170.676626 93.625146 
L 171.976544 93.625146 
L 172.301523 93.112815 
L 172.626503 93.112815 
L 172.951482 92.908231 
L 173.926421 92.908231 
L 174.2514 92.703648 
L 175.551319 92.601356 
L 175.876298 92.188699 
L 176.201278 92.188699 
L 176.526257 91.982371 
L 178.151155 91.880079 
L 178.476134 91.573204 
L 178.801114 91.573204 
L 179.126093 91.266328 
L 179.451073 91.266328 
L 179.776052 91.060873 
L 181.40095 90.958581 
L 183.025848 90.549414 
L 183.350827 90.549414 
L 183.675807 90.34483 
L 184.975725 90.242539 
L 185.300704 89.833371 
L 186.600622 89.73108 
L 186.925602 89.524751 
L 187.250581 89.524751 
L 187.900541 89.216131 
L 188.5505 89.11384 
L 189.200459 88.702928 
L 189.525438 88.702928 
L 189.850418 88.498344 
L 190.500377 88.498344 
L 190.825356 88.088305 
L 191.150336 88.088305 
L 191.475315 87.679138 
L 192.125274 87.575973 
L 192.450254 87.575973 
L 192.775233 87.37139 
L 193.750172 87.37139 
L 194.075152 87.166806 
L 194.400131 87.166806 
L 194.725111 86.962223 
L 196.350008 86.859931 
L 196.999967 86.756767 
L 197.324947 86.756767 
L 197.649926 86.552184 
L 198.624865 86.552184 
L 199.274824 86.244436 
L 200.249762 86.039852 
L 200.574742 86.039852 
L 200.899722 85.835269 
L 201.87466 85.835269 
L 202.19964 85.630685 
L 202.849599 85.630685 
L 203.174578 85.426102 
L 204.149517 85.426102 
L 204.474496 85.119227 
L 204.799476 85.119227 
L 205.124455 84.607768 
L 205.449435 84.607768 
L 205.774414 84.300892 
L 207.399312 84.197728 
L 207.724292 83.889108 
L 208.049271 83.889108 
L 208.374251 83.684525 
L 209.349189 83.582233 
L 210.974087 83.171321 
L 214.223882 83.069029 
L 216.823718 82.351242 
L 218.448616 82.24895 
L 219.098575 82.146659 
L 222.023391 82.044367 
L 222.67335 81.942075 
L 223.323309 81.942075 
L 223.648288 81.737492 
L 223.973268 81.737492 
L 224.298247 81.495319 
L 226.573104 81.22516 
L 228.847961 81.122869 
L 229.17294 80.815121 
L 229.49792 80.815121 
L 229.822899 80.609665 
L 230.797838 80.507373 
L 231.772776 80.301917 
L 235.022572 80.199626 
L 235.347551 79.99417 
L 235.672531 79.99417 
L 235.99751 79.686422 
L 236.32249 79.686422 
L 236.647469 79.379547 
L 236.972449 79.379547 
L 237.297428 79.174963 
L 241.847142 79.072671 
L 242.172121 78.868088 
L 243.14706 78.764924 
L 243.472039 78.354884 
L 245.421916 78.252593 
L 245.746896 78.048009 
L 247.371794 77.945717 
L 247.696773 77.740261 
L 250.946568 77.63797 
L 251.271548 77.431641 
L 252.246486 77.431641 
L 252.571466 77.124766 
L 254.846323 77.124766 
L 255.496282 76.817018 
L 256.146241 76.714727 
L 257.771138 76.612435 
L 258.096118 76.30556 
L 259.721016 76.203268 
L 260.695954 75.997812 
L 263.945749 75.894648 
L 264.920688 75.690064 
L 266.545586 75.690064 
L 266.870565 75.383189 
L 268.495463 75.280897 
L 269.145422 75.178605 
L 269.470401 74.769438 
L 273.045176 74.667147 
L 275.645012 73.94936 
L 277.26991 73.94936 
L 277.919869 73.640739 
L 278.244848 73.640739 
L 278.569828 73.436156 
L 279.869746 73.436156 
L 280.194726 73.126663 
L 280.844685 73.024372 
L 284.419459 72.92208 
L 284.744439 72.717496 
L 286.369337 72.717496 
L 286.694316 72.206038 
L 287.019296 72.206038 
L 287.344275 71.899162 
L 287.669255 71.899162 
L 287.994234 71.694579 
L 291.244029 71.592287 
L 291.893989 71.489995 
L 293.843866 71.489995 
L 294.168845 71.285412 
L 295.468763 71.18312 
L 295.793743 70.876245 
L 296.768681 70.773953 
L 297.41864 70.671661 
L 298.718559 70.569369 
L 299.043538 70.364786 
L 299.368518 70.364786 
L 299.693497 70.15933 
L 300.668436 70.056166 
L 301.318395 69.953002 
L 302.943292 69.85071 
L 303.593251 69.748418 
L 305.868108 69.639983 
L 307.817985 69.339251 
L 308.142965 69.134668 
L 308.467944 69.134668 
L 308.792924 68.725501 
L 310.417821 68.623209 
L 310.742801 68.418625 
L 311.71774 68.316334 
L 312.042719 68.009458 
L 313.992596 68.009458 
L 314.317576 67.701711 
L 315.942473 67.599419 
L 316.592432 67.497127 
L 317.242391 67.497127 
L 317.567371 67.292544 
L 325.0419 67.190252 
L 326.016839 66.985668 
L 330.566552 66.877999 
L 331.86647 66.677048 
L 332.19145 66.370173 
L 333.166388 66.370173 
L 333.491368 66.164717 
L 335.766224 66.061553 
L 336.416183 65.753805 
L 337.066143 65.651513 
L 338.69104 65.548349 
L 339.665979 65.343766 
L 339.990958 65.343766 
L 340.315938 65.03689 
L 341.290876 64.934599 
L 341.615856 64.730015 
L 342.590794 64.626851 
L 343.240753 64.524559 
L 344.215692 64.422268 
L 345.51561 64.012228 
L 345.84059 63.705353 
L 346.165569 63.705353 
L 346.490549 63.500769 
L 347.465487 63.398478 
L 348.115446 63.296186 
L 351.040262 63.193894 
L 351.365242 62.989311 
L 351.690221 62.989311 
L 352.015201 62.784727 
L 352.34018 62.784727 
L 352.66516 62.580144 
L 353.315119 62.477852 
L 354.940016 62.067812 
L 357.214873 61.965521 
L 357.539853 61.760937 
L 358.514791 61.658645 
L 359.16475 61.556354 
L 359.814709 61.556354 
L 360.139689 61.35177 
L 360.789648 61.249478 
L 361.439607 61.146314 
L 362.089566 61.146314 
L 362.414545 60.839439 
L 363.389484 60.633983 
L 364.689402 60.633983 
L 365.014382 60.327108 
L 366.964259 59.813904 
L 367.289238 59.813904 
L 367.614218 59.609321 
L 368.264177 59.609321 
L 368.589156 59.404737 
L 369.564095 59.404737 
L 369.889075 59.200153 
L 371.513972 59.097862 
L 371.838952 58.893278 
L 372.163931 58.893278 
L 372.488911 58.688695 
L 373.463849 58.586403 
L 373.788829 58.381819 
L 375.088747 58.278655 
L 376.063686 58.073199 
L 378.338542 58.073199 
L 378.663522 57.662287 
L 381.263358 57.559996 
L 381.913317 57.457704 
L 383.213235 57.355412 
L 383.538215 57.150829 
L 384.513153 57.048537 
L 385.813071 56.741662 
L 388.087928 56.63937 
L 389.387846 56.332495 
L 391.337723 56.332495 
L 391.662703 56.127911 
L 393.61258 56.127911 
L 393.937559 55.783048 
L 394.912498 55.535459 
L 395.237477 55.002702 
L 396.212416 54.932562 
L 396.862375 54.732533 
L 397.187355 53.944606 
L 397.837314 53.670292 
L 398.487273 53.568 
L 398.487273 53.568 
" style="fill:none;stroke:#0000ff;stroke-dasharray:2,3.3;stroke-dashoffset:0;stroke-width:2;"/>
   </g>
   <g id="line2d_16">
    <path clip-path="url(#p380a852758)" d="M 73.832727 295.488 
L 156.702506 119.296439 
L 159.302342 114.904112 
L 161.252219 112.438699 
L 162.877117 110.931215 
L 164.826994 108.943658 
L 167.101851 106.967779 
L 167.42683 106.503549 
L 169.051728 105.224598 
L 169.376708 104.661933 
L 171.001605 103.378306 
L 171.326585 102.58307 
L 172.626503 101.576617 
L 172.951482 101.108171 
L 176.526257 98.071807 
L 179.451073 95.466712 
L 180.101032 94.613886 
L 182.050909 92.935794 
L 182.375889 92.491564 
L 182.700868 92.251918 
L 183.025848 91.807689 
L 184.000786 91.362407 
L 184.975725 90.876281 
L 185.625684 90.518099 
L 186.925602 90.455846 
L 188.875479 90.353555 
L 189.200459 90.148971 
L 194.075152 90.06109 
L 194.725111 89.737187 
L 196.674988 89.636277 
L 200.574742 88.507941 
L 201.87466 88.201066 
L 203.499558 88.098774 
L 203.824537 87.382732 
L 204.474496 87.279567 
L 204.799476 87.279567 
L 205.124455 86.8704 
L 206.099394 86.8704 
L 206.424373 86.665817 
L 207.399312 86.563525 
L 207.724292 86.358942 
L 208.69923 86.25665 
L 209.349189 86.153486 
L 213.573923 86.051194 
L 213.898903 85.84661 
L 215.198821 85.743446 
L 215.5238 85.436571 
L 219.098575 85.334279 
L 219.423554 85.129696 
L 221.048452 85.027404 
L 222.998329 84.5142 
L 223.973268 84.411908 
L 224.298247 83.695866 
L 225.273186 83.593574 
L 225.598165 83.387246 
L 226.573104 83.387246 
L 226.898084 83.182663 
L 227.223063 83.182663 
L 227.873022 82.874042 
L 228.198002 82.874042 
L 228.522981 82.567167 
L 230.147879 82.464875 
L 230.472858 82.055708 
L 230.797838 82.055708 
L 231.122817 81.850253 
L 233.722654 81.747961 
L 234.372613 81.644797 
L 235.022572 81.644797 
L 235.347551 81.233885 
L 236.972449 81.131593 
L 237.947387 80.927009 
L 238.272367 80.927009 
L 238.597346 80.721554 
L 239.897265 80.619262 
L 240.222244 80.209222 
L 240.547224 80.209222 
L 240.872203 79.902347 
L 241.847142 79.800055 
L 242.497101 79.697764 
L 243.797019 79.595472 
L 244.771957 79.390888 
L 246.071876 79.288597 
L 246.721835 79.186305 
L 248.021753 79.186305 
L 248.346732 78.980849 
L 249.321671 78.980849 
L 249.64665 78.571682 
L 250.621589 78.46939 
L 250.946568 78.162515 
L 252.896446 78.060223 
L 253.221425 77.85564 
L 253.546405 77.85564 
L 253.871384 77.651056 
L 254.846323 77.651056 
L 255.171302 77.344181 
L 255.821261 77.241017 
L 256.7962 77.138725 
L 257.446159 77.036433 
L 260.370975 76.934141 
L 261.020934 76.83185 
L 262.970811 76.729558 
L 263.29579 76.422683 
L 267.195545 76.422683 
L 267.845504 76.114935 
L 270.12036 76.012643 
L 270.44534 75.704895 
L 271.095299 75.602604 
L 271.745258 75.499439 
L 272.395217 75.499439 
L 272.720197 75.293111 
L 273.045176 74.883944 
L 274.020115 74.78078 
L 274.670074 74.678488 
L 277.594889 74.678488 
L 277.919869 74.473905 
L 278.569828 74.371613 
L 279.219787 74.268449 
L 279.544767 74.268449 
L 279.869746 74.063865 
L 280.194726 74.063865 
L 280.844685 73.756118 
L 281.494644 73.653826 
L 283.7695 73.550662 
L 284.09448 73.346078 
L 285.394398 73.243786 
L 287.994234 72.525999 
L 288.644193 72.525999 
L 288.969173 72.321416 
L 289.294152 72.321416 
L 289.619132 72.01454 
L 290.59407 72.01454 
L 290.91905 71.809957 
L 291.893989 71.707665 
L 293.193907 71.40079 
L 293.843866 71.40079 
L 294.168845 71.093915 
L 294.818804 71.093915 
L 295.143784 70.787039 
L 296.443702 70.684748 
L 297.41864 70.479292 
L 298.718559 70.479292 
L 299.043538 70.172416 
L 300.018477 70.069252 
L 300.343456 69.863796 
L 301.643374 69.863796 
L 301.968354 69.454629 
L 302.943292 69.352338 
L 303.268272 68.840879 
L 304.24321 68.840879 
L 304.56819 68.533131 
L 306.193088 68.430839 
L 306.518067 68.226256 
L 307.493006 68.123964 
L 307.817985 68.0208 
L 308.142965 67.407049 
L 308.467944 67.407049 
L 308.792924 66.997882 
L 309.767862 66.895591 
L 310.092842 66.483806 
L 311.067781 66.380642 
L 311.39276 66.176059 
L 311.71774 66.176059 
L 312.042719 65.453909 
L 313.992596 65.351618 
L 314.317576 65.147034 
L 314.642555 65.147034 
L 314.967535 64.942451 
L 315.292514 64.942451 
L 315.617494 64.736995 
L 315.942473 64.736995 
L 316.267453 64.020952 
L 316.592432 64.020952 
L 316.917412 63.611785 
L 317.242391 63.611785 
L 317.567371 63.407202 
L 317.892351 63.407202 
L 318.21733 63.201746 
L 318.867289 63.201746 
L 319.192269 62.893998 
L 322.117084 62.790834 
L 323.417002 62.483086 
L 324.391941 62.380795 
L 325.36688 62.174466 
L 326.341818 62.071302 
L 326.666798 61.865846 
L 326.991777 61.865846 
L 327.316757 61.661263 
L 328.941654 61.558971 
L 329.266634 61.251223 
L 332.516429 61.148931 
L 332.841409 60.944348 
L 334.466306 60.842056 
L 335.116265 60.739764 
L 338.69104 60.637473 
L 339.01602 60.432889 
L 339.990958 60.330597 
L 340.640917 60.228306 
L 342.590794 60.126014 
L 343.240753 60.023722 
L 344.865651 59.92143 
L 345.84059 59.716847 
L 348.115446 59.614555 
L 348.765405 59.512263 
L 352.015201 59.409972 
L 352.66516 59.306807 
L 354.290057 59.204516 
L 354.615037 58.999932 
L 354.940016 58.999932 
L 355.264996 58.795349 
L 356.564914 58.795349 
L 356.889894 58.590765 
L 358.514791 58.590765 
L 358.839771 58.386182 
L 360.464668 58.28389 
L 361.114627 58.181598 
L 362.739525 58.079306 
L 365.98932 57.157808 
L 368.914136 57.055516 
L 369.564095 56.953225 
L 372.81389 56.850933 
L 373.463849 56.748641 
L 376.063686 56.646349 
L 376.713645 56.543185 
L 377.038624 56.543185 
L 377.363604 56.338602 
L 377.688583 56.338602 
L 378.013563 56.134018 
L 381.263358 56.031726 
L 382.238296 55.827143 
L 384.513153 55.724851 
L 384.838133 55.519395 
L 387.112989 55.417103 
L 387.437969 55.210775 
L 390.037805 55.108483 
L 391.012744 54.903027 
L 391.987682 54.903027 
L 392.312662 54.285787 
L 394.912498 54.183495 
L 396.537396 54.034119 
L 397.187355 53.839222 
L 398.487273 53.568 
L 398.487273 53.568 
" style="fill:none;stroke:#008000;stroke-dasharray:2,3.3;stroke-dashoffset:0;stroke-width:2;"/>
   </g>
   <g id="line2d_17">
    <path clip-path="url(#p380a852758)" d="M 73.832727 295.488 
L 127.129369 142.160269 
L 131.679083 132.072754 
L 136.228796 124.507204 
L 137.203735 123.809745 
L 152.152793 114.138395 
L 398.487273 53.568 
L 398.487273 53.568 
" style="fill:none;stroke:#800080;stroke-dasharray:2,3.3;stroke-dashoffset:0;stroke-width:2;"/>
   </g>
   <g id="line2d_18">
    <path clip-path="url(#p380a852758)" d="M 73.832727 295.488 
L 398.487273 53.568 
" style="fill:none;stroke:#000080;stroke-dasharray:7.4,3.2;stroke-dashoffset:0;stroke-width:2;"/>
   </g>
   <g id="patch_3">
    <path d="M 57.6 307.584 
L 57.6 41.472 
" style="fill:none;stroke:#000000;stroke-linecap:square;stroke-linejoin:miter;stroke-width:0.8;"/>
   </g>
   <g id="patch_4">
    <path d="M 414.72 307.584 
L 414.72 41.472 
" style="fill:none;stroke:#000000;stroke-linecap:square;stroke-linejoin:miter;stroke-width:0.8;"/>
   </g>
   <g id="patch_5">
    <path d="M 57.6 307.584 
L 414.72 307.584 
" style="fill:none;stroke:#000000;stroke-linecap:square;stroke-linejoin:miter;stroke-width:0.8;"/>
   </g>
   <g id="patch_6">
    <path d="M 57.6 41.472 
L 414.72 41.472 
" style="fill:none;stroke:#000000;stroke-linecap:square;stroke-linejoin:miter;stroke-width:0.8;"/>
   </g>
   <g id="legend_1">
    <g id="patch_7">
     <path d="M 224.173125 302.584 
L 407.72 302.584 
Q 409.72 302.584 409.72 300.584 
L 409.72 228.193375 
Q 409.72 226.193375 407.72 226.193375 
L 224.173125 226.193375 
Q 222.173125 226.193375 222.173125 228.193375 
L 222.173125 300.584 
Q 222.173125 302.584 224.173125 302.584 
z
" style="fill:#ffffff;opacity:0.8;stroke:#cccccc;stroke-linejoin:miter;"/>
    </g>
    <g id="line2d_19">
     <path d="M 226.173125 234.291812 
L 246.173125 234.291812 
" style="fill:none;stroke:#000000;stroke-linecap:square;stroke-width:2;"/>
    </g>
    <g id="line2d_20"/>
    <g id="text_15">
     <!-- RandomForest(AUC = 0.8707) -->
     <defs>
      <path d="M 54.890625 33.015625 
L 54.890625 0 
L 45.90625 0 
L 45.90625 32.71875 
Q 45.90625 40.484375 42.875 44.328125 
Q 39.84375 48.1875 33.796875 48.1875 
Q 26.515625 48.1875 22.3125 43.546875 
Q 18.109375 38.921875 18.109375 30.90625 
L 18.109375 0 
L 9.078125 0 
L 9.078125 54.6875 
L 18.109375 54.6875 
L 18.109375 46.1875 
Q 21.34375 51.125 25.703125 53.5625 
Q 30.078125 56 35.796875 56 
Q 45.21875 56 50.046875 50.171875 
Q 54.890625 44.34375 54.890625 33.015625 
z
" id="DejaVuSans-6e"/>
      <path d="M 45.40625 46.390625 
L 45.40625 75.984375 
L 54.390625 75.984375 
L 54.390625 0 
L 45.40625 0 
L 45.40625 8.203125 
Q 42.578125 3.328125 38.25 0.953125 
Q 33.9375 -1.421875 27.875 -1.421875 
Q 17.96875 -1.421875 11.734375 6.484375 
Q 5.515625 14.40625 5.515625 27.296875 
Q 5.515625 40.1875 11.734375 48.09375 
Q 17.96875 56 27.875 56 
Q 33.9375 56 38.25 53.625 
Q 42.578125 51.265625 45.40625 46.390625 
z
M 14.796875 27.296875 
Q 14.796875 17.390625 18.875 11.75 
Q 22.953125 6.109375 30.078125 6.109375 
Q 37.203125 6.109375 41.296875 11.75 
Q 45.40625 17.390625 45.40625 27.296875 
Q 45.40625 37.203125 41.296875 42.84375 
Q 37.203125 48.484375 30.078125 48.484375 
Q 22.953125 48.484375 18.875 42.84375 
Q 14.796875 37.203125 14.796875 27.296875 
z
" id="DejaVuSans-64"/>
      <path d="M 52 44.1875 
Q 55.375 50.25 60.0625 53.125 
Q 64.75 56 71.09375 56 
Q 79.640625 56 84.28125 50.015625 
Q 88.921875 44.046875 88.921875 33.015625 
L 88.921875 0 
L 79.890625 0 
L 79.890625 32.71875 
Q 79.890625 40.578125 77.09375 44.375 
Q 74.3125 48.1875 68.609375 48.1875 
Q 61.625 48.1875 57.5625 43.546875 
Q 53.515625 38.921875 53.515625 30.90625 
L 53.515625 0 
L 44.484375 0 
L 44.484375 32.71875 
Q 44.484375 40.625 41.703125 44.40625 
Q 38.921875 48.1875 33.109375 48.1875 
Q 26.21875 48.1875 22.15625 43.53125 
Q 18.109375 38.875 18.109375 30.90625 
L 18.109375 0 
L 9.078125 0 
L 9.078125 54.6875 
L 18.109375 54.6875 
L 18.109375 46.1875 
Q 21.1875 51.21875 25.484375 53.609375 
Q 29.78125 56 35.6875 56 
Q 41.65625 56 45.828125 52.96875 
Q 50 49.953125 52 44.1875 
z
" id="DejaVuSans-6d"/>
      <path d="M 31 75.875 
Q 24.46875 64.65625 21.28125 53.65625 
Q 18.109375 42.671875 18.109375 31.390625 
Q 18.109375 20.125 21.3125 9.0625 
Q 24.515625 -2 31 -13.1875 
L 23.1875 -13.1875 
Q 15.875 -1.703125 12.234375 9.375 
Q 8.59375 20.453125 8.59375 31.390625 
Q 8.59375 42.28125 12.203125 53.3125 
Q 15.828125 64.359375 23.1875 75.875 
z
" id="DejaVuSans-28"/>
      <path d="M 34.1875 63.1875 
L 20.796875 26.90625 
L 47.609375 26.90625 
z
M 28.609375 72.90625 
L 39.796875 72.90625 
L 67.578125 0 
L 57.328125 0 
L 50.6875 18.703125 
L 17.828125 18.703125 
L 11.1875 0 
L 0.78125 0 
z
" id="DejaVuSans-41"/>
      <path d="M 8.6875 72.90625 
L 18.609375 72.90625 
L 18.609375 28.609375 
Q 18.609375 16.890625 22.84375 11.734375 
Q 27.09375 6.59375 36.625 6.59375 
Q 46.09375 6.59375 50.34375 11.734375 
Q 54.59375 16.890625 54.59375 28.609375 
L 54.59375 72.90625 
L 64.5 72.90625 
L 64.5 27.390625 
Q 64.5 13.140625 57.4375 5.859375 
Q 50.390625 -1.421875 36.625 -1.421875 
Q 22.796875 -1.421875 15.734375 5.859375 
Q 8.6875 13.140625 8.6875 27.390625 
z
" id="DejaVuSans-55"/>
      <path d="M 64.40625 67.28125 
L 64.40625 56.890625 
Q 59.421875 61.53125 53.78125 63.8125 
Q 48.140625 66.109375 41.796875 66.109375 
Q 29.296875 66.109375 22.65625 58.46875 
Q 16.015625 50.828125 16.015625 36.375 
Q 16.015625 21.96875 22.65625 14.328125 
Q 29.296875 6.6875 41.796875 6.6875 
Q 48.140625 6.6875 53.78125 8.984375 
Q 59.421875 11.28125 64.40625 15.921875 
L 64.40625 5.609375 
Q 59.234375 2.09375 53.4375 0.328125 
Q 47.65625 -1.421875 41.21875 -1.421875 
Q 24.65625 -1.421875 15.125 8.703125 
Q 5.609375 18.84375 5.609375 36.375 
Q 5.609375 53.953125 15.125 64.078125 
Q 24.65625 74.21875 41.21875 74.21875 
Q 47.75 74.21875 53.53125 72.484375 
Q 59.328125 70.75 64.40625 67.28125 
z
" id="DejaVuSans-43"/>
      <path d="M 10.59375 45.40625 
L 73.1875 45.40625 
L 73.1875 37.203125 
L 10.59375 37.203125 
z
M 10.59375 25.484375 
L 73.1875 25.484375 
L 73.1875 17.1875 
L 10.59375 17.1875 
z
" id="DejaVuSans-3d"/>
      <path d="M 8.203125 72.90625 
L 55.078125 72.90625 
L 55.078125 68.703125 
L 28.609375 0 
L 18.3125 0 
L 43.21875 64.59375 
L 8.203125 64.59375 
z
" id="DejaVuSans-37"/>
      <path d="M 8.015625 75.875 
L 15.828125 75.875 
Q 23.140625 64.359375 26.78125 53.3125 
Q 30.421875 42.28125 30.421875 31.390625 
Q 30.421875 20.453125 26.78125 9.375 
Q 23.140625 -1.703125 15.828125 -13.1875 
L 8.015625 -13.1875 
Q 14.5 -2 17.703125 9.0625 
Q 20.90625 20.125 20.90625 31.390625 
Q 20.90625 42.671875 17.703125 53.65625 
Q 14.5 64.65625 8.015625 75.875 
z
" id="DejaVuSans-29"/>
     </defs>
     <g transform="translate(254.173125 237.791812)scale(0.1 -0.1)">
      <use xlink:href="#DejaVuSans-52"/>
      <use x="69.451172" xlink:href="#DejaVuSans-61"/>
      <use x="130.730469" xlink:href="#DejaVuSans-6e"/>
      <use x="194.109375" xlink:href="#DejaVuSans-64"/>
      <use x="257.585938" xlink:href="#DejaVuSans-6f"/>
      <use x="318.767578" xlink:href="#DejaVuSans-6d"/>
      <use x="416.179688" xlink:href="#DejaVuSans-46"/>
      <use x="473.652344" xlink:href="#DejaVuSans-6f"/>
      <use x="534.833984" xlink:href="#DejaVuSans-72"/>
      <use x="575.916016" xlink:href="#DejaVuSans-65"/>
      <use x="637.439453" xlink:href="#DejaVuSans-73"/>
      <use x="689.539062" xlink:href="#DejaVuSans-74"/>
      <use x="728.748047" xlink:href="#DejaVuSans-28"/>
      <use x="767.761719" xlink:href="#DejaVuSans-41"/>
      <use x="836.169922" xlink:href="#DejaVuSans-55"/>
      <use x="909.363281" xlink:href="#DejaVuSans-43"/>
      <use x="979.1875" xlink:href="#DejaVuSans-20"/>
      <use x="1010.974609" xlink:href="#DejaVuSans-3d"/>
      <use x="1094.763672" xlink:href="#DejaVuSans-20"/>
      <use x="1126.550781" xlink:href="#DejaVuSans-30"/>
      <use x="1190.173828" xlink:href="#DejaVuSans-2e"/>
      <use x="1221.960938" xlink:href="#DejaVuSans-38"/>
      <use x="1285.583984" xlink:href="#DejaVuSans-37"/>
      <use x="1349.207031" xlink:href="#DejaVuSans-30"/>
      <use x="1412.830078" xlink:href="#DejaVuSans-37"/>
      <use x="1476.453125" xlink:href="#DejaVuSans-29"/>
     </g>
    </g>
    <g id="line2d_21">
     <path d="M 226.173125 248.969937 
L 246.173125 248.969937 
" style="fill:none;stroke:#ff0000;stroke-dasharray:2,3.3;stroke-dashoffset:0;stroke-width:2;"/>
    </g>
    <g id="line2d_22"/>
    <g id="text_16">
     <!-- Bagging(AUC = 0.8591) -->
     <defs>
      <path d="M 19.671875 34.8125 
L 19.671875 8.109375 
L 35.5 8.109375 
Q 43.453125 8.109375 47.28125 11.40625 
Q 51.125 14.703125 51.125 21.484375 
Q 51.125 28.328125 47.28125 31.5625 
Q 43.453125 34.8125 35.5 34.8125 
z
M 19.671875 64.796875 
L 19.671875 42.828125 
L 34.28125 42.828125 
Q 41.5 42.828125 45.03125 45.53125 
Q 48.578125 48.25 48.578125 53.8125 
Q 48.578125 59.328125 45.03125 62.0625 
Q 41.5 64.796875 34.28125 64.796875 
z
M 9.8125 72.90625 
L 35.015625 72.90625 
Q 46.296875 72.90625 52.390625 68.21875 
Q 58.5 63.53125 58.5 54.890625 
Q 58.5 48.1875 55.375 44.234375 
Q 52.25 40.28125 46.1875 39.3125 
Q 53.46875 37.75 57.5 32.78125 
Q 61.53125 27.828125 61.53125 20.40625 
Q 61.53125 10.640625 54.890625 5.3125 
Q 48.25 0 35.984375 0 
L 9.8125 0 
z
" id="DejaVuSans-42"/>
      <path d="M 45.40625 27.984375 
Q 45.40625 37.75 41.375 43.109375 
Q 37.359375 48.484375 30.078125 48.484375 
Q 22.859375 48.484375 18.828125 43.109375 
Q 14.796875 37.75 14.796875 27.984375 
Q 14.796875 18.265625 18.828125 12.890625 
Q 22.859375 7.515625 30.078125 7.515625 
Q 37.359375 7.515625 41.375 12.890625 
Q 45.40625 18.265625 45.40625 27.984375 
z
M 54.390625 6.78125 
Q 54.390625 -7.171875 48.1875 -13.984375 
Q 42 -20.796875 29.203125 -20.796875 
Q 24.46875 -20.796875 20.265625 -20.09375 
Q 16.0625 -19.390625 12.109375 -17.921875 
L 12.109375 -9.1875 
Q 16.0625 -11.328125 19.921875 -12.34375 
Q 23.78125 -13.375 27.78125 -13.375 
Q 36.625 -13.375 41.015625 -8.765625 
Q 45.40625 -4.15625 45.40625 5.171875 
L 45.40625 9.625 
Q 42.625 4.78125 38.28125 2.390625 
Q 33.9375 0 27.875 0 
Q 17.828125 0 11.671875 7.65625 
Q 5.515625 15.328125 5.515625 27.984375 
Q 5.515625 40.671875 11.671875 48.328125 
Q 17.828125 56 27.875 56 
Q 33.9375 56 38.28125 53.609375 
Q 42.625 51.21875 45.40625 46.390625 
L 45.40625 54.6875 
L 54.390625 54.6875 
z
" id="DejaVuSans-67"/>
      <path d="M 10.796875 72.90625 
L 49.515625 72.90625 
L 49.515625 64.59375 
L 19.828125 64.59375 
L 19.828125 46.734375 
Q 21.96875 47.46875 24.109375 47.828125 
Q 26.265625 48.1875 28.421875 48.1875 
Q 40.625 48.1875 47.75 41.5 
Q 54.890625 34.8125 54.890625 23.390625 
Q 54.890625 11.625 47.5625 5.09375 
Q 40.234375 -1.421875 26.90625 -1.421875 
Q 22.3125 -1.421875 17.546875 -0.640625 
Q 12.796875 0.140625 7.71875 1.703125 
L 7.71875 11.625 
Q 12.109375 9.234375 16.796875 8.0625 
Q 21.484375 6.890625 26.703125 6.890625 
Q 35.15625 6.890625 40.078125 11.328125 
Q 45.015625 15.765625 45.015625 23.390625 
Q 45.015625 31 40.078125 35.4375 
Q 35.15625 39.890625 26.703125 39.890625 
Q 22.75 39.890625 18.8125 39.015625 
Q 14.890625 38.140625 10.796875 36.28125 
z
" id="DejaVuSans-35"/>
      <path d="M 10.984375 1.515625 
L 10.984375 10.5 
Q 14.703125 8.734375 18.5 7.8125 
Q 22.3125 6.890625 25.984375 6.890625 
Q 35.75 6.890625 40.890625 13.453125 
Q 46.046875 20.015625 46.78125 33.40625 
Q 43.953125 29.203125 39.59375 26.953125 
Q 35.25 24.703125 29.984375 24.703125 
Q 19.046875 24.703125 12.671875 31.3125 
Q 6.296875 37.9375 6.296875 49.421875 
Q 6.296875 60.640625 12.9375 67.421875 
Q 19.578125 74.21875 30.609375 74.21875 
Q 43.265625 74.21875 49.921875 64.515625 
Q 56.59375 54.828125 56.59375 36.375 
Q 56.59375 19.140625 48.40625 8.859375 
Q 40.234375 -1.421875 26.421875 -1.421875 
Q 22.703125 -1.421875 18.890625 -0.6875 
Q 15.09375 0.046875 10.984375 1.515625 
z
M 30.609375 32.421875 
Q 37.25 32.421875 41.125 36.953125 
Q 45.015625 41.5 45.015625 49.421875 
Q 45.015625 57.28125 41.125 61.84375 
Q 37.25 66.40625 30.609375 66.40625 
Q 23.96875 66.40625 20.09375 61.84375 
Q 16.21875 57.28125 16.21875 49.421875 
Q 16.21875 41.5 20.09375 36.953125 
Q 23.96875 32.421875 30.609375 32.421875 
z
" id="DejaVuSans-39"/>
     </defs>
     <g transform="translate(254.173125 252.469937)scale(0.1 -0.1)">
      <use xlink:href="#DejaVuSans-42"/>
      <use x="68.603516" xlink:href="#DejaVuSans-61"/>
      <use x="129.882812" xlink:href="#DejaVuSans-67"/>
      <use x="193.359375" xlink:href="#DejaVuSans-67"/>
      <use x="256.835938" xlink:href="#DejaVuSans-69"/>
      <use x="284.619141" xlink:href="#DejaVuSans-6e"/>
      <use x="347.998047" xlink:href="#DejaVuSans-67"/>
      <use x="411.474609" xlink:href="#DejaVuSans-28"/>
      <use x="450.488281" xlink:href="#DejaVuSans-41"/>
      <use x="518.896484" xlink:href="#DejaVuSans-55"/>
      <use x="592.089844" xlink:href="#DejaVuSans-43"/>
      <use x="661.914062" xlink:href="#DejaVuSans-20"/>
      <use x="693.701172" xlink:href="#DejaVuSans-3d"/>
      <use x="777.490234" xlink:href="#DejaVuSans-20"/>
      <use x="809.277344" xlink:href="#DejaVuSans-30"/>
      <use x="872.900391" xlink:href="#DejaVuSans-2e"/>
      <use x="904.6875" xlink:href="#DejaVuSans-38"/>
      <use x="968.310547" xlink:href="#DejaVuSans-35"/>
      <use x="1031.933594" xlink:href="#DejaVuSans-39"/>
      <use x="1095.556641" xlink:href="#DejaVuSans-31"/>
      <use x="1159.179688" xlink:href="#DejaVuSans-29"/>
     </g>
    </g>
    <g id="line2d_23">
     <path d="M 226.173125 263.648062 
L 246.173125 263.648062 
" style="fill:none;stroke:#0000ff;stroke-dasharray:2,3.3;stroke-dashoffset:0;stroke-width:2;"/>
    </g>
    <g id="line2d_24"/>
    <g id="text_17">
     <!-- AdaBoost(AUC = 0.8570) -->
     <g transform="translate(254.173125 267.148062)scale(0.1 -0.1)">
      <use xlink:href="#DejaVuSans-41"/>
      <use x="68.392578" xlink:href="#DejaVuSans-64"/>
      <use x="131.869141" xlink:href="#DejaVuSans-61"/>
      <use x="193.148438" xlink:href="#DejaVuSans-42"/>
      <use x="261.751953" xlink:href="#DejaVuSans-6f"/>
      <use x="322.933594" xlink:href="#DejaVuSans-6f"/>
      <use x="384.115234" xlink:href="#DejaVuSans-73"/>
      <use x="436.214844" xlink:href="#DejaVuSans-74"/>
      <use x="475.423828" xlink:href="#DejaVuSans-28"/>
      <use x="514.4375" xlink:href="#DejaVuSans-41"/>
      <use x="582.845703" xlink:href="#DejaVuSans-55"/>
      <use x="656.039062" xlink:href="#DejaVuSans-43"/>
      <use x="725.863281" xlink:href="#DejaVuSans-20"/>
      <use x="757.650391" xlink:href="#DejaVuSans-3d"/>
      <use x="841.439453" xlink:href="#DejaVuSans-20"/>
      <use x="873.226562" xlink:href="#DejaVuSans-30"/>
      <use x="936.849609" xlink:href="#DejaVuSans-2e"/>
      <use x="968.636719" xlink:href="#DejaVuSans-38"/>
      <use x="1032.259766" xlink:href="#DejaVuSans-35"/>
      <use x="1095.882812" xlink:href="#DejaVuSans-37"/>
      <use x="1159.505859" xlink:href="#DejaVuSans-30"/>
      <use x="1223.128906" xlink:href="#DejaVuSans-29"/>
     </g>
    </g>
    <g id="line2d_25">
     <path d="M 226.173125 278.326188 
L 246.173125 278.326188 
" style="fill:none;stroke:#008000;stroke-dasharray:2,3.3;stroke-dashoffset:0;stroke-width:2;"/>
    </g>
    <g id="line2d_26"/>
    <g id="text_18">
     <!-- Naive Bayes(AUC = 0.7723) -->
     <defs>
      <path d="M 9.8125 72.90625 
L 23.09375 72.90625 
L 55.421875 11.921875 
L 55.421875 72.90625 
L 64.984375 72.90625 
L 64.984375 0 
L 51.703125 0 
L 19.390625 60.984375 
L 19.390625 0 
L 9.8125 0 
z
" id="DejaVuSans-4e"/>
      <path d="M 32.171875 -5.078125 
Q 28.375 -14.84375 24.75 -17.8125 
Q 21.140625 -20.796875 15.09375 -20.796875 
L 7.90625 -20.796875 
L 7.90625 -13.28125 
L 13.1875 -13.28125 
Q 16.890625 -13.28125 18.9375 -11.515625 
Q 21 -9.765625 23.484375 -3.21875 
L 25.09375 0.875 
L 2.984375 54.6875 
L 12.5 54.6875 
L 29.59375 11.921875 
L 46.6875 54.6875 
L 56.203125 54.6875 
z
" id="DejaVuSans-79"/>
      <path d="M 40.578125 39.3125 
Q 47.65625 37.796875 51.625 33 
Q 55.609375 28.21875 55.609375 21.1875 
Q 55.609375 10.40625 48.1875 4.484375 
Q 40.765625 -1.421875 27.09375 -1.421875 
Q 22.515625 -1.421875 17.65625 -0.515625 
Q 12.796875 0.390625 7.625 2.203125 
L 7.625 11.71875 
Q 11.71875 9.328125 16.59375 8.109375 
Q 21.484375 6.890625 26.8125 6.890625 
Q 36.078125 6.890625 40.9375 10.546875 
Q 45.796875 14.203125 45.796875 21.1875 
Q 45.796875 27.640625 41.28125 31.265625 
Q 36.765625 34.90625 28.71875 34.90625 
L 20.21875 34.90625 
L 20.21875 43.015625 
L 29.109375 43.015625 
Q 36.375 43.015625 40.234375 45.921875 
Q 44.09375 48.828125 44.09375 54.296875 
Q 44.09375 59.90625 40.109375 62.90625 
Q 36.140625 65.921875 28.71875 65.921875 
Q 24.65625 65.921875 20.015625 65.03125 
Q 15.375 64.15625 9.8125 62.3125 
L 9.8125 71.09375 
Q 15.4375 72.65625 20.34375 73.4375 
Q 25.25 74.21875 29.59375 74.21875 
Q 40.828125 74.21875 47.359375 69.109375 
Q 53.90625 64.015625 53.90625 55.328125 
Q 53.90625 49.265625 50.4375 45.09375 
Q 46.96875 40.921875 40.578125 39.3125 
z
" id="DejaVuSans-33"/>
     </defs>
     <g transform="translate(254.173125 281.826188)scale(0.1 -0.1)">
      <use xlink:href="#DejaVuSans-4e"/>
      <use x="74.804688" xlink:href="#DejaVuSans-61"/>
      <use x="136.083984" xlink:href="#DejaVuSans-69"/>
      <use x="163.867188" xlink:href="#DejaVuSans-76"/>
      <use x="223.046875" xlink:href="#DejaVuSans-65"/>
      <use x="284.570312" xlink:href="#DejaVuSans-20"/>
      <use x="316.357422" xlink:href="#DejaVuSans-42"/>
      <use x="384.960938" xlink:href="#DejaVuSans-61"/>
      <use x="446.240234" xlink:href="#DejaVuSans-79"/>
      <use x="505.419922" xlink:href="#DejaVuSans-65"/>
      <use x="566.943359" xlink:href="#DejaVuSans-73"/>
      <use x="619.042969" xlink:href="#DejaVuSans-28"/>
      <use x="658.056641" xlink:href="#DejaVuSans-41"/>
      <use x="726.464844" xlink:href="#DejaVuSans-55"/>
      <use x="799.658203" xlink:href="#DejaVuSans-43"/>
      <use x="869.482422" xlink:href="#DejaVuSans-20"/>
      <use x="901.269531" xlink:href="#DejaVuSans-3d"/>
      <use x="985.058594" xlink:href="#DejaVuSans-20"/>
      <use x="1016.845703" xlink:href="#DejaVuSans-30"/>
      <use x="1080.46875" xlink:href="#DejaVuSans-2e"/>
      <use x="1112.255859" xlink:href="#DejaVuSans-37"/>
      <use x="1175.878906" xlink:href="#DejaVuSans-37"/>
      <use x="1239.501953" xlink:href="#DejaVuSans-32"/>
      <use x="1303.125" xlink:href="#DejaVuSans-33"/>
      <use x="1366.748047" xlink:href="#DejaVuSans-29"/>
     </g>
    </g>
    <g id="line2d_27">
     <path d="M 226.173125 293.004312 
L 246.173125 293.004312 
" style="fill:none;stroke:#800080;stroke-dasharray:2,3.3;stroke-dashoffset:0;stroke-width:2;"/>
    </g>
    <g id="line2d_28"/>
    <g id="text_19">
     <!-- DecisionTree(AUC = 0.7705) -->
     <defs>
      <path d="M 19.671875 64.796875 
L 19.671875 8.109375 
L 31.59375 8.109375 
Q 46.6875 8.109375 53.6875 14.9375 
Q 60.6875 21.78125 60.6875 36.53125 
Q 60.6875 51.171875 53.6875 57.984375 
Q 46.6875 64.796875 31.59375 64.796875 
z
M 9.8125 72.90625 
L 30.078125 72.90625 
Q 51.265625 72.90625 61.171875 64.09375 
Q 71.09375 55.28125 71.09375 36.53125 
Q 71.09375 17.671875 61.125 8.828125 
Q 51.171875 0 30.078125 0 
L 9.8125 0 
z
" id="DejaVuSans-44"/>
      <path d="M 48.78125 52.59375 
L 48.78125 44.1875 
Q 44.96875 46.296875 41.140625 47.34375 
Q 37.3125 48.390625 33.40625 48.390625 
Q 24.65625 48.390625 19.8125 42.84375 
Q 14.984375 37.3125 14.984375 27.296875 
Q 14.984375 17.28125 19.8125 11.734375 
Q 24.65625 6.203125 33.40625 6.203125 
Q 37.3125 6.203125 41.140625 7.25 
Q 44.96875 8.296875 48.78125 10.40625 
L 48.78125 2.09375 
Q 45.015625 0.34375 40.984375 -0.53125 
Q 36.96875 -1.421875 32.421875 -1.421875 
Q 20.0625 -1.421875 12.78125 6.34375 
Q 5.515625 14.109375 5.515625 27.296875 
Q 5.515625 40.671875 12.859375 48.328125 
Q 20.21875 56 33.015625 56 
Q 37.15625 56 41.109375 55.140625 
Q 45.0625 54.296875 48.78125 52.59375 
z
" id="DejaVuSans-63"/>
     </defs>
     <g transform="translate(254.173125 296.504312)scale(0.1 -0.1)">
      <use xlink:href="#DejaVuSans-44"/>
      <use x="77.001953" xlink:href="#DejaVuSans-65"/>
      <use x="138.525391" xlink:href="#DejaVuSans-63"/>
      <use x="193.505859" xlink:href="#DejaVuSans-69"/>
      <use x="221.289062" xlink:href="#DejaVuSans-73"/>
      <use x="273.388672" xlink:href="#DejaVuSans-69"/>
      <use x="301.171875" xlink:href="#DejaVuSans-6f"/>
      <use x="362.353516" xlink:href="#DejaVuSans-6e"/>
      <use x="425.732422" xlink:href="#DejaVuSans-54"/>
      <use x="486.597656" xlink:href="#DejaVuSans-72"/>
      <use x="527.679688" xlink:href="#DejaVuSans-65"/>
      <use x="589.203125" xlink:href="#DejaVuSans-65"/>
      <use x="650.726562" xlink:href="#DejaVuSans-28"/>
      <use x="689.740234" xlink:href="#DejaVuSans-41"/>
      <use x="758.148438" xlink:href="#DejaVuSans-55"/>
      <use x="831.341797" xlink:href="#DejaVuSans-43"/>
      <use x="901.166016" xlink:href="#DejaVuSans-20"/>
      <use x="932.953125" xlink:href="#DejaVuSans-3d"/>
      <use x="1016.742188" xlink:href="#DejaVuSans-20"/>
      <use x="1048.529297" xlink:href="#DejaVuSans-30"/>
      <use x="1112.152344" xlink:href="#DejaVuSans-2e"/>
      <use x="1143.939453" xlink:href="#DejaVuSans-37"/>
      <use x="1207.5625" xlink:href="#DejaVuSans-37"/>
      <use x="1271.185547" xlink:href="#DejaVuSans-30"/>
      <use x="1334.808594" xlink:href="#DejaVuSans-35"/>
      <use x="1398.431641" xlink:href="#DejaVuSans-29"/>
     </g>
    </g>
   </g>
  </g>
 </g>
 <defs>
  <clipPath id="p380a852758">
   <rect height="266.112" width="357.12" x="57.6" y="41.472"/>
  </clipPath>
 </defs>
</svg>
